<?xml version="1.0" encoding="UTF-8"?>
<!DOCTYPE svg PUBLIC "-//W3C//DTD SVG 1.1//EN" "http://www.w3.org/Graphics/SVG/1.1/DTD/svg11.dtd">
<svg xmlns="http://www.w3.org/2000/svg" version="1.1" width="322px" height="105px" style="shape-rendering:geometricPrecision; text-rendering:geometricPrecision; image-rendering:optimizeQuality; fill-rule:evenodd; clip-rule:evenodd" xmlns:xlink="http://www.w3.org/1999/xlink">
<g><path style="opacity:1" fill="#b7a1dd" d="M 124.5,-0.5 C 126.5,-0.5 128.5,-0.5 130.5,-0.5C 133.188,1.22465 132.855,2.55798 129.5,3.5C 128.833,3.16667 128.167,2.83333 127.5,2.5C 127.167,3.16667 126.833,3.83333 126.5,4.5C 125.14,3.82006 123.807,3.15339 122.5,2.5C 123.551,1.77765 124.218,0.777652 124.5,-0.5 Z"/></g>
<g><path style="opacity:1" fill="#e1d7f0" d="M 105.5,-0.5 C 111.833,-0.5 118.167,-0.5 124.5,-0.5C 124.218,0.777652 123.551,1.77765 122.5,2.5C 122.167,2.5 121.833,2.5 121.5,2.5C 117.965,1.59266 114.132,1.25933 110,1.5C 105.363,2.3118 100.696,2.97846 96,3.5C 94.3189,3.39174 93.1522,2.72507 92.5,1.5C 96.9935,1.02424 101.327,0.357568 105.5,-0.5 Z"/></g>
<g><path style="opacity:1" fill="#eee9f7" d="M 84.5,2.5 C 86.5273,2.33788 88.5273,2.50454 90.5,3C 85.2711,3.75198 80.2711,4.91865 75.5,6.5C 71.5732,6.92569 67.9065,7.92569 64.5,9.5C 64.1667,9.5 63.8333,9.5 63.5,9.5C 63.0825,8.77842 62.4158,8.27842 61.5,8C 62.1667,7.66667 62.8333,7.33333 63.5,7C 61.8807,6.76445 60.8807,5.93112 60.5,4.5C 68.4335,3.29409 76.4335,2.62742 84.5,2.5 Z"/></g>
<g><path style="opacity:1" fill="#b8a2dd" d="M 84.5,2.5 C 86.9479,1.52693 89.6146,1.1936 92.5,1.5C 93.1522,2.72507 94.3189,3.39174 96,3.5C 100.696,2.97846 105.363,2.3118 110,1.5C 114.132,1.25933 117.965,1.59266 121.5,2.5C 120.134,4.3505 118.467,4.68383 116.5,3.5C 115.5,4 114.5,4.5 113.5,5C 114.696,5.65431 114.696,6.15431 113.5,6.5C 112.5,5.83333 111.5,5.16667 110.5,4.5C 109.808,5.02527 109.308,5.69194 109,6.5C 106.843,3.92181 105.677,3.92181 105.5,6.5C 104.5,5.83333 103.5,5.16667 102.5,4.5C 102.167,5.16667 101.833,5.83333 101.5,6.5C 98.8333,6.5 96.1667,6.5 93.5,6.5C 92.1667,5.83333 90.8333,5.16667 89.5,4.5C 86.4396,5.70638 83.4396,6.70638 80.5,7.5C 78.9291,6.69063 77.2624,6.35729 75.5,6.5C 80.2711,4.91865 85.2711,3.75198 90.5,3C 88.5273,2.50454 86.5273,2.33788 84.5,2.5 Z"/></g>
<g><path style="opacity:1" fill="#9778ce" d="M 130.5,-0.5 C 133.5,-0.5 136.5,-0.5 139.5,-0.5C 143.939,-0.0807983 148.273,0.919202 152.5,2.5C 152.631,3.23891 152.464,3.90558 152,4.5C 151.346,3.30441 150.846,3.30441 150.5,4.5C 151.428,5.76779 151.595,7.10112 151,8.5C 149.667,9.83333 148.333,11.1667 147,12.5C 147.707,10.1569 147.374,7.82352 146,5.5C 145.667,6.16667 145.333,6.83333 145,7.5C 144,6.16667 143,6.16667 142,7.5C 141.667,6.83333 141.333,6.16667 141,5.5C 139.989,6.33663 138.822,6.66997 137.5,6.5C 137.33,7.82207 137.663,8.98873 138.5,10C 136.627,11.7038 134.96,13.5372 133.5,15.5C 132.761,15.631 132.094,15.4643 131.5,15C 133.741,13.2609 135.408,11.0942 136.5,8.5C 134.392,6.15665 132.392,6.48999 130.5,9.5C 129.749,8.62402 129.249,7.62402 129,6.5C 128.031,8.73392 126.698,10.7339 125,12.5C 124.667,11.5 124.333,10.5 124,9.5C 123.535,10.9308 122.701,12.0975 121.5,13C 123.709,13.957 123.543,15.1236 121,16.5C 120.667,15.8333 120.333,15.1667 120,14.5C 119.163,16.0074 117.996,16.5074 116.5,16C 119.379,14.1643 120.879,11.6643 121,8.5C 120.051,10.0931 118.885,11.4264 117.5,12.5C 117.657,11.1266 117.49,9.79323 117,8.5C 116.667,8.83333 116.333,9.16667 116,9.5C 114.983,6.97203 113.816,6.97203 112.5,9.5C 111.808,8.97473 111.308,8.30806 111,7.5C 109.579,10.0094 107.912,12.3428 106,14.5C 105.735,12.8374 106.235,11.3374 107.5,10C 106.258,9.68861 105.258,10.1886 104.5,11.5C 102.373,9.38276 102.04,10.0494 103.5,13.5C 102.117,16.0756 101.283,15.7423 101,12.5C 100.667,12.8333 100.333,13.1667 100,13.5C 99.6411,10.4557 98.9745,10.1224 98,12.5C 96.7964,11.5294 96.2964,10.5294 96.5,9.5C 95.2011,10.09 94.3678,11.09 94,12.5C 91.4649,12.2846 89.2983,10.9513 87.5,8.5C 85.1967,9.95252 83.0301,10.9525 81,11.5C 79.3861,10.977 77.8861,9.64362 76.5,7.5C 75.0268,8.38653 73.6935,9.38653 72.5,10.5C 69.8333,10.1667 67.1667,9.83333 64.5,9.5C 67.9065,7.92569 71.5732,6.92569 75.5,6.5C 77.2624,6.35729 78.9291,6.69063 80.5,7.5C 83.4396,6.70638 86.4396,5.70638 89.5,4.5C 90.8333,5.16667 92.1667,5.83333 93.5,6.5C 96.1667,6.5 98.8333,6.5 101.5,6.5C 101.833,5.83333 102.167,5.16667 102.5,4.5C 103.5,5.16667 104.5,5.83333 105.5,6.5C 105.677,3.92181 106.843,3.92181 109,6.5C 109.308,5.69194 109.808,5.02527 110.5,4.5C 111.5,5.16667 112.5,5.83333 113.5,6.5C 114.696,6.15431 114.696,5.65431 113.5,5C 114.5,4.5 115.5,4 116.5,3.5C 118.467,4.68383 120.134,4.3505 121.5,2.5C 121.833,2.5 122.167,2.5 122.5,2.5C 123.807,3.15339 125.14,3.82006 126.5,4.5C 126.833,3.83333 127.167,3.16667 127.5,2.5C 128.167,2.83333 128.833,3.16667 129.5,3.5C 132.855,2.55798 133.188,1.22465 130.5,-0.5 Z"/></g>
<g><path style="opacity:1" fill="#e0d7f0" d="M 39.5,6.5 C 41.8568,6.33669 44.1902,6.50335 46.5,7C 40.7038,8.49183 35.0371,8.6585 29.5,7.5C 32.7644,6.67577 36.0977,6.34243 39.5,6.5 Z"/></g>
<g><path style="opacity:1" fill="#835fc5" d="M 181.5,8.5 C 182.833,9.16667 182.833,9.16667 181.5,8.5 Z"/></g>
<g><path style="opacity:1" fill="#835fc5" d="M 184.5,9.5 C 185.833,10.1667 185.833,10.1667 184.5,9.5 Z"/></g>
<g><path style="opacity:1" fill="#8865c6" d="M 175.5,8.5 C 174.518,9.14083 173.518,9.80749 172.5,10.5C 171.808,9.97473 171.308,9.30806 171,8.5C 168.167,10.6667 165.333,12.8333 162.5,15C 165.028,15.6689 165.028,16.5022 162.5,17.5C 160.602,16.2655 158.935,16.5989 157.5,18.5C 157.167,17.8333 156.833,17.1667 156.5,16.5C 154.736,18.9628 152.403,20.1294 149.5,20C 150.328,19.0853 151.328,18.4186 152.5,18C 150.776,17.5518 150.109,16.7185 150.5,15.5C 145.955,19.5181 140.955,21.8514 135.5,22.5C 135.082,21.7784 134.416,21.2784 133.5,21C 135.5,19.6667 137.5,18.3333 139.5,17C 137.776,16.5518 137.109,15.7185 137.5,14.5C 136.167,15.5 134.833,16.5 133.5,17.5C 132.537,17.0302 132.537,16.3635 133.5,15.5C 134.96,13.5372 136.627,11.7038 138.5,10C 137.663,8.98873 137.33,7.82207 137.5,6.5C 138.822,6.66997 139.989,6.33663 141,5.5C 141.333,6.16667 141.667,6.83333 142,7.5C 143,6.16667 144,6.16667 145,7.5C 145.333,6.83333 145.667,6.16667 146,5.5C 147.374,7.82352 147.707,10.1569 147,12.5C 148.333,11.1667 149.667,9.83333 151,8.5C 151.595,7.10112 151.428,5.76779 150.5,4.5C 150.846,3.30441 151.346,3.30441 152,4.5C 152.464,3.90558 152.631,3.23891 152.5,2.5C 153.216,2.21694 154.049,1.88361 155,1.5C 157.097,2.99097 159.43,3.99097 162,4.5C 163.395,3.18543 164.395,3.51877 165,5.5C 167.097,5.69376 169.263,5.69376 171.5,5.5C 172.192,6.02527 172.692,6.69194 173,7.5C 175.447,6.0036 176.281,6.33693 175.5,8.5 Z"/></g>
<g><path style="opacity:1" fill="#835fc5" d="M 186.5,10.5 C 187.833,11.1667 187.833,11.1667 186.5,10.5 Z"/></g>
<g><path style="opacity:1" fill="#8763c6" d="M 191.5,13.5 C 191.897,12.475 192.563,12.3083 193.5,13C 192.906,13.4643 192.239,13.631 191.5,13.5 Z"/></g>
<g><path style="opacity:1" fill="#8763c6" d="M 117.5,12.5 C 116.207,14.2959 114.707,15.9625 113,17.5C 112.667,16.8333 112.333,16.1667 112,15.5C 110.59,16.7875 109.09,17.9542 107.5,19C 108.167,19.3333 108.833,19.6667 109.5,20C 106.536,20.8403 106.203,21.8403 108.5,23C 107.833,23.3333 107.167,23.6667 106.5,24C 108.996,25.0804 111.33,26.4138 113.5,28C 112.584,28.2784 111.918,28.7784 111.5,29.5C 98.4255,21.452 85.4255,15.1187 72.5,10.5C 73.6935,9.38653 75.0268,8.38653 76.5,7.5C 77.8861,9.64362 79.3861,10.977 81,11.5C 83.0301,10.9525 85.1967,9.95252 87.5,8.5C 89.2983,10.9513 91.4649,12.2846 94,12.5C 94.3678,11.09 95.2011,10.09 96.5,9.5C 96.2964,10.5294 96.7964,11.5294 98,12.5C 98.9745,10.1224 99.6411,10.4557 100,13.5C 100.333,13.1667 100.667,12.8333 101,12.5C 101.283,15.7423 102.117,16.0756 103.5,13.5C 102.04,10.0494 102.373,9.38276 104.5,11.5C 105.258,10.1886 106.258,9.68861 107.5,10C 106.235,11.3374 105.735,12.8374 106,14.5C 107.912,12.3428 109.579,10.0094 111,7.5C 111.308,8.30806 111.808,8.97473 112.5,9.5C 113.816,6.97203 114.983,6.97203 116,9.5C 116.333,9.16667 116.667,8.83333 117,8.5C 117.49,9.79323 117.657,11.1266 117.5,12.5 Z"/></g>
<g><path style="opacity:1" fill="#835fc5" d="M 198.5,15.5 C 197.833,14.1667 197.833,14.1667 198.5,15.5 Z"/></g>
<g><path style="opacity:1" fill="#dbd0ee" d="M 60.5,4.5 C 60.8807,5.93112 61.8807,6.76445 63.5,7C 62.8333,7.33333 62.1667,7.66667 61.5,8C 62.4158,8.27842 63.0825,8.77842 63.5,9.5C 39.9202,18.4196 18.5868,31.0863 -0.5,47.5C -0.5,46.5 -0.5,45.5 -0.5,44.5C 6.10161,40.2957 12.4349,34.9624 18.5,28.5C 25.5866,25.4549 32.2532,21.6215 38.5,17C 44.0311,14.2693 49.6978,11.9359 55.5,10C 51.1482,9.58112 50.8149,8.91445 54.5,8C 51.6385,8.03019 49.3052,7.19686 47.5,5.5C 51.7978,4.80049 56.1311,4.46716 60.5,4.5 Z"/></g>
<g><path style="opacity:1" fill="#9576cd" d="M 21.5,9.5 C 20.5,11.8333 21.1667,12.5 23.5,11.5C 23.0022,14.4869 22.5022,17.4869 22,20.5C 21.3086,18.1088 20.3086,18.1088 19,20.5C 18.6667,19.8333 18.3333,19.1667 18,18.5C 16.8903,20.3969 16.7236,22.2302 17.5,24C 16.2559,24.4561 15.4226,23.9561 15,22.5C 14.0853,23.3279 13.4186,24.3279 13,25.5C 12.5774,24.0439 11.7441,23.5439 10.5,24C 10.9574,24.414 11.2907,24.914 11.5,25.5C 10.273,26.5904 9.43963,27.9238 9,29.5C 8.33333,28.1667 7.66667,26.8333 7,25.5C 6.46436,27.5672 6.96436,29.4006 8.5,31C 7.25591,31.4561 6.42258,30.9561 6,29.5C 5.78369,31.3839 5.11702,33.0506 4,34.5C 3.95694,25.6932 2.79027,25.5265 0.5,34C 1.566,35.159 1.23267,35.9924 -0.5,36.5C -0.5,31.1667 -0.5,25.8333 -0.5,20.5C 6.24427,15.7945 13.5776,12.1278 21.5,9.5 Z"/></g>
<g><path style="opacity:1" fill="#7f59c2" d="M 181.5,9.5 C 182.209,10.404 183.209,10.7373 184.5,10.5C 184.842,11.3382 185.508,11.6716 186.5,11.5C 185.537,12.3635 185.537,13.0302 186.5,13.5C 187.5,12.8333 188.5,12.1667 189.5,11.5C 190.696,11.8457 190.696,12.3457 189.5,13C 190.094,13.4643 190.761,13.631 191.5,13.5C 190.537,14.3635 190.537,15.0302 191.5,15.5C 193.983,15.3155 196.316,15.3155 198.5,15.5C 200.593,16.0447 202.593,16.878 204.5,18C 203.833,18.3333 203.167,18.6667 202.5,19C 205.071,20.4538 207.738,21.6205 210.5,22.5C 211.514,23.6737 212.847,24.3404 214.5,24.5C 214.082,25.2216 213.416,25.7216 212.5,26C 212.833,26.3333 213.167,26.6667 213.5,27C 211.953,27.3334 210.62,26.8334 209.5,25.5C 209.167,26.1667 208.833,26.8333 208.5,27.5C 204.198,24.1615 199.531,22.3281 194.5,22C 193.167,21.3333 193.167,20.6667 194.5,20C 191.147,17.8504 189.48,18.5171 189.5,22C 190.328,22.9147 191.328,23.5814 192.5,24C 190.37,25.261 188.203,25.761 186,25.5C 185.063,21.8559 183.563,21.6892 181.5,25C 181.743,25.9021 182.077,26.7354 182.5,27.5C 180.956,27.2969 179.622,26.6302 178.5,25.5C 177.636,27.1965 176.303,28.3632 174.5,29C 176.332,29.7485 177.999,30.7485 179.5,32C 177.231,31.6256 174.898,31.6256 172.5,32C 173.328,32.9147 174.328,33.5814 175.5,34C 174.833,34.3333 174.167,34.6667 173.5,35C 174.833,36 176.167,37 177.5,38C 174.428,39.6906 171.761,39.0239 169.5,36C 172.167,35.3333 172.167,34.6667 169.5,34C 167.029,33.2937 164.695,33.627 162.5,35C 164.119,36.9232 165.952,37.4232 168,36.5C 168.717,37.0442 169.217,37.7109 169.5,38.5C 167.708,38.366 166.042,38.6993 164.5,39.5C 163.833,39.5 163.167,39.5 162.5,39.5C 161.426,38.1154 160.093,36.9487 158.5,36C 157.451,35.5078 156.451,35.6744 155.5,36.5C 153.007,34.4197 150.341,32.5864 147.5,31C 150.167,30.3333 150.167,29.6667 147.5,29C 148.167,28.6667 148.833,28.3333 149.5,28C 148.058,27.6232 147.058,26.7899 146.5,25.5C 146.918,24.7784 147.584,24.2784 148.5,24C 146.776,23.5518 146.109,22.7185 146.5,21.5C 143.822,22.491 141.155,23.491 138.5,24.5C 137.261,24.0576 136.261,23.3909 135.5,22.5C 140.955,21.8514 145.955,19.5181 150.5,15.5C 150.109,16.7185 150.776,17.5518 152.5,18C 151.328,18.4186 150.328,19.0853 149.5,20C 152.403,20.1294 154.736,18.9628 156.5,16.5C 156.833,17.1667 157.167,17.8333 157.5,18.5C 158.935,16.5989 160.602,16.2655 162.5,17.5C 165.028,16.5022 165.028,15.6689 162.5,15C 165.333,12.8333 168.167,10.6667 171,8.5C 171.308,9.30806 171.808,9.97473 172.5,10.5C 173.518,9.80749 174.518,9.14083 175.5,8.5C 176.496,8.58577 177.329,8.25244 178,7.5C 178.71,8.97326 179.876,9.63993 181.5,9.5 Z"/></g>
<g><path style="opacity:1" fill="#a186d2" d="M -0.5,41.5 C -0.5,39.8333 -0.5,38.1667 -0.5,36.5C 1.23267,35.9924 1.566,35.159 0.5,34C 2.79027,25.5265 3.95694,25.6932 4,34.5C 5.11702,33.0506 5.78369,31.3839 6,29.5C 6.42258,30.9561 7.25591,31.4561 8.5,31C 6.96436,29.4006 6.46436,27.5672 7,25.5C 7.66667,26.8333 8.33333,28.1667 9,29.5C 9.43963,27.9238 10.273,26.5904 11.5,25.5C 11.2907,24.914 10.9574,24.414 10.5,24C 11.7441,23.5439 12.5774,24.0439 13,25.5C 13.4186,24.3279 14.0853,23.3279 15,22.5C 15.4226,23.9561 16.2559,24.4561 17.5,24C 16.7236,22.2302 16.8903,20.3969 18,18.5C 18.3333,19.1667 18.6667,19.8333 19,20.5C 20.3086,18.1088 21.3086,18.1088 22,20.5C 22.5022,17.4869 23.0022,14.4869 23.5,11.5C 24.8804,10.2935 26.0471,10.6269 27,12.5C 27.2492,11.376 27.7492,10.376 28.5,9.5C 29.7112,10.3898 31.0445,10.3898 32.5,9.5C 33.5144,11.1918 35.181,12.1918 37.5,12.5C 35.1756,13.6622 32.8422,14.8289 30.5,16C 29.8095,17.0674 29.3095,18.2341 29,19.5C 26.2656,16.7074 25.2656,17.0407 26,20.5C 25.3333,19.8333 24.6667,19.1667 24,18.5C 24,19.8333 24,21.1667 24,22.5C 22.9505,21.4829 21.7839,21.3162 20.5,22C 21.8627,24.1293 21.5294,24.6293 19.5,23.5C 18.5276,25.6365 16.8609,26.8032 14.5,27C 13.3588,29.7832 11.5255,31.9499 9,33.5C 8.51722,34.448 8.35055,35.448 8.5,36.5C 6.85703,36.4802 5.5237,37.1468 4.5,38.5C 3.91395,38.2907 3.41395,37.9574 3,37.5C 2.50167,39.5444 1.33501,40.8777 -0.5,41.5 Z"/></g>
<g><path style="opacity:1" fill="#b7a2dd" d="M 39.5,6.5 C 41.9479,5.52693 44.6146,5.1936 47.5,5.5C 49.3052,7.19686 51.6385,8.03019 54.5,8C 50.8149,8.91445 51.1482,9.58112 55.5,10C 49.6978,11.9359 44.0311,14.2693 38.5,17C 32.2532,21.6215 25.5866,25.4549 18.5,28.5C 12.4349,34.9624 6.10161,40.2957 -0.5,44.5C -0.5,43.5 -0.5,42.5 -0.5,41.5C 1.33501,40.8777 2.50167,39.5444 3,37.5C 3.41395,37.9574 3.91395,38.2907 4.5,38.5C 5.5237,37.1468 6.85703,36.4802 8.5,36.5C 8.35055,35.448 8.51722,34.448 9,33.5C 11.5255,31.9499 13.3588,29.7832 14.5,27C 16.8609,26.8032 18.5276,25.6365 19.5,23.5C 21.5294,24.6293 21.8627,24.1293 20.5,22C 21.7839,21.3162 22.9505,21.4829 24,22.5C 24,21.1667 24,19.8333 24,18.5C 24.6667,19.1667 25.3333,19.8333 26,20.5C 25.2656,17.0407 26.2656,16.7074 29,19.5C 29.3095,18.2341 29.8095,17.0674 30.5,16C 32.8422,14.8289 35.1756,13.6622 37.5,12.5C 35.181,12.1918 33.5144,11.1918 32.5,9.5C 31.0445,10.3898 29.7112,10.3898 28.5,9.5C 27.7492,10.376 27.2492,11.376 27,12.5C 26.0471,10.6269 24.8804,10.2935 23.5,11.5C 21.1667,12.5 20.5,11.8333 21.5,9.5C 24.0667,8.52498 26.7334,7.85831 29.5,7.5C 35.0371,8.6585 40.7038,8.49183 46.5,7C 44.1902,6.50335 41.8568,6.33669 39.5,6.5 Z"/></g>
<g><path style="opacity:1" fill="#8c6bc9" d="M 207.5,19.5 C 208.833,20.1667 208.833,20.1667 207.5,19.5 Z"/></g>
<g><path style="opacity:1" fill="#9678ce" d="M 210.5,21.5 C 209.833,20.1667 209.833,20.1667 210.5,21.5 Z"/></g>
<g><path style="opacity:1" fill="#815bc3" d="M 133.5,15.5 C 132.537,16.3635 132.537,17.0302 133.5,17.5C 134.833,16.5 136.167,15.5 137.5,14.5C 137.109,15.7185 137.776,16.5518 139.5,17C 137.5,18.3333 135.5,19.6667 133.5,21C 134.416,21.2784 135.082,21.7784 135.5,22.5C 136.261,23.3909 137.261,24.0576 138.5,24.5C 141.155,23.491 143.822,22.491 146.5,21.5C 146.109,22.7185 146.776,23.5518 148.5,24C 147.584,24.2784 146.918,24.7784 146.5,25.5C 145.078,25.7086 143.745,26.2086 142.5,27C 143.614,28.4493 144.614,29.7827 145.5,31C 143.319,33.078 141.319,32.9114 139.5,30.5C 138.549,31.3256 137.549,31.4922 136.5,31C 135.672,30.0853 134.672,29.4186 133.5,29C 134.167,28.6667 134.833,28.3333 135.5,28C 133.401,25.4295 131.068,25.0962 128.5,27C 129.833,29.605 131.833,31.605 134.5,33C 131.793,35.5814 129.126,35.748 126.5,33.5C 124.481,35.4646 122.481,35.6312 120.5,34C 121.167,33.6667 121.833,33.3333 122.5,33C 120.833,31.8333 119.167,30.6667 117.5,29.5C 116.261,29.9424 115.261,30.6091 114.5,31.5C 113.29,31.0679 112.29,30.4013 111.5,29.5C 111.918,28.7784 112.584,28.2784 113.5,28C 111.33,26.4138 108.996,25.0804 106.5,24C 107.167,23.6667 107.833,23.3333 108.5,23C 106.203,21.8403 106.536,20.8403 109.5,20C 108.833,19.6667 108.167,19.3333 107.5,19C 109.09,17.9542 110.59,16.7875 112,15.5C 112.333,16.1667 112.667,16.8333 113,17.5C 114.707,15.9625 116.207,14.2959 117.5,12.5C 118.885,11.4264 120.051,10.0931 121,8.5C 120.879,11.6643 119.379,14.1643 116.5,16C 117.996,16.5074 119.163,16.0074 120,14.5C 120.333,15.1667 120.667,15.8333 121,16.5C 123.543,15.1236 123.709,13.957 121.5,13C 122.701,12.0975 123.535,10.9308 124,9.5C 124.333,10.5 124.667,11.5 125,12.5C 126.698,10.7339 128.031,8.73392 129,6.5C 129.249,7.62402 129.749,8.62402 130.5,9.5C 132.392,6.48999 134.392,6.15665 136.5,8.5C 135.408,11.0942 133.741,13.2609 131.5,15C 132.094,15.4643 132.761,15.631 133.5,15.5 Z"/></g>
<g><path style="opacity:1" fill="#8a67c7" d="M 210.5,22.5 C 210.5,22.1667 210.5,21.8333 210.5,21.5C 213.167,21.8333 213.167,22.1667 210.5,22.5 Z"/></g>
<g><path style="opacity:1" fill="#835fc5" d="M 214.5,23.5 C 213.833,22.1667 213.833,22.1667 214.5,23.5 Z"/></g>
<g><path style="opacity:1" fill="#7b53c0" d="M 214.5,24.5 C 214.5,24.1667 214.5,23.8333 214.5,23.5C 227.946,30.6177 240.28,39.2843 251.5,49.5C 251.631,50.2389 251.464,50.9056 251,51.5C 250.282,50.5494 249.449,50.3828 248.5,51C 249.984,52.5737 251.651,53.907 253.5,55C 251.109,55.6914 251.109,56.6914 253.5,58C 251.726,59.7557 250.059,59.7557 248.5,58C 249.167,57.6667 249.833,57.3333 250.5,57C 249.295,55.7295 247.962,55.0628 246.5,55C 246.833,55.3333 247.167,55.6667 247.5,56C 246.5,57 245.5,58 244.5,59C 245.833,60 247.167,61 248.5,62C 247.833,62.3333 247.167,62.6667 246.5,63C 246.5,64 246.5,65 246.5,66C 244.953,66.3334 243.62,65.8334 242.5,64.5C 241.289,63.7261 241.289,62.8928 242.5,62C 241.956,61.2828 241.289,60.7828 240.5,60.5C 239.457,52.7388 234.957,49.0721 227,49.5C 215.265,51.9606 211.598,58.9606 216,70.5C 217.669,71.8463 218.836,73.513 219.5,75.5C 217.956,75.2969 216.622,74.6302 215.5,73.5C 215.167,74.1667 214.833,74.8333 214.5,75.5C 213.065,73.5989 211.398,73.2655 209.5,74.5C 207.971,73.2371 206.305,72.2371 204.5,71.5C 205.125,68.0295 204.125,65.1962 201.5,63C 197.612,61.6216 193.612,60.6216 189.5,60C 188.426,59.2613 187.759,58.2613 187.5,57C 189.268,54.7827 191.601,53.6161 194.5,53.5C 197.178,54.1754 199.844,54.842 202.5,55.5C 202.799,56.7603 202.799,57.927 202.5,59C 206.124,59.2674 206.79,58.2674 204.5,56C 205.833,54.3333 207.167,52.6667 208.5,51C 206.5,50.3333 204.5,49.6667 202.5,49C 203.167,48.6667 203.833,48.3333 204.5,48C 204.5,47 204.5,46 204.5,45C 206.5,45.6667 208.5,46.3333 210.5,47C 209.833,46.3333 209.167,45.6667 208.5,45C 209.5,44 210.5,43 211.5,42C 210.167,41 208.833,40 207.5,39C 208.167,38.6667 208.833,38.3333 209.5,38C 208.167,37 206.833,36 205.5,35C 206.167,34.6667 206.833,34.3333 207.5,34C 205.401,31.4295 203.068,31.0962 200.5,33C 201.833,34 203.167,35 204.5,36C 203.167,36.6667 201.833,37.3333 200.5,38C 201.634,39.016 201.301,39.6827 199.5,40C 199.5,41 199.5,42 199.5,43C 196.653,44.8517 194.153,44.3517 192,41.5C 191.544,42.7441 192.044,43.5774 193.5,44C 193.097,45.6041 191.764,46.7708 189.5,47.5C 188.692,47.1924 188.025,46.6924 187.5,46C 188.5,45 189.5,44 190.5,43C 189.167,42 187.833,41 186.5,40C 188.681,37.922 190.681,38.0886 192.5,40.5C 193.696,40.1543 193.696,39.6543 192.5,39C 193.833,38.3333 195.167,37.6667 196.5,37C 193.919,33.3539 190.919,32.8539 187.5,35.5C 182.306,33.8305 182.306,32.3305 187.5,31C 185.654,29.9702 183.987,28.8036 182.5,27.5C 182.077,26.7354 181.743,25.9021 181.5,25C 183.563,21.6892 185.063,21.8559 186,25.5C 188.203,25.761 190.37,25.261 192.5,24C 191.328,23.5814 190.328,22.9147 189.5,22C 189.48,18.5171 191.147,17.8504 194.5,20C 193.167,20.6667 193.167,21.3333 194.5,22C 199.531,22.3281 204.198,24.1615 208.5,27.5C 208.833,26.8333 209.167,26.1667 209.5,25.5C 210.62,26.8334 211.953,27.3334 213.5,27C 213.167,26.6667 212.833,26.3333 212.5,26C 213.416,25.7216 214.082,25.2216 214.5,24.5 Z"/></g>
<g><path style="opacity:1" fill="#7a52c0" d="M 146.5,25.5 C 147.058,26.7899 148.058,27.6232 149.5,28C 148.833,28.3333 148.167,28.6667 147.5,29C 150.167,29.6667 150.167,30.3333 147.5,31C 150.341,32.5864 153.007,34.4197 155.5,36.5C 156.451,35.6744 157.451,35.5078 158.5,36C 160.093,36.9487 161.426,38.1154 162.5,39.5C 163.538,41.1084 162.871,42.1084 160.5,42.5C 159.914,42.2907 159.414,41.9574 159,41.5C 158.544,42.7441 159.044,43.5774 160.5,44C 159.833,44.3333 159.167,44.6667 158.5,45C 160.734,46.7498 163.068,48.2498 165.5,49.5C 165.5,58.5 165.5,67.5 165.5,76.5C 164.691,74.7078 164.191,72.7078 164,70.5C 159.886,66.5391 155.386,63.2058 150.5,60.5C 151.826,57.2273 153.16,53.8939 154.5,50.5C 152.833,49.1667 151.167,49.1667 149.5,50.5C 148.942,53.127 147.942,55.4604 146.5,57.5C 136.2,48.3543 125.533,39.6876 114.5,31.5C 115.261,30.6091 116.261,29.9424 117.5,29.5C 119.167,30.6667 120.833,31.8333 122.5,33C 121.833,33.3333 121.167,33.6667 120.5,34C 122.481,35.6312 124.481,35.4646 126.5,33.5C 129.126,35.748 131.793,35.5814 134.5,33C 131.833,31.605 129.833,29.605 128.5,27C 131.068,25.0962 133.401,25.4295 135.5,28C 134.833,28.3333 134.167,28.6667 133.5,29C 134.672,29.4186 135.672,30.0853 136.5,31C 137.549,31.4922 138.549,31.3256 139.5,30.5C 141.319,32.9114 143.319,33.078 145.5,31C 144.614,29.7827 143.614,28.4493 142.5,27C 143.745,26.2086 145.078,25.7086 146.5,25.5 Z"/></g>
<g><path style="opacity:1" fill="#f5f1fa" d="M 169.5,38.5 C 172.347,41.4949 171.681,43.4949 167.5,44.5C 164.915,43.9272 163.915,42.2605 164.5,39.5C 166.042,38.6993 167.708,38.366 169.5,38.5 Z"/></g>
<g><path style="opacity:1" fill="#b39ddb" d="M 60.5,76.5 C 60.5,64.1667 60.5,51.8333 60.5,39.5C 59.1667,39.5 57.8333,39.5 56.5,39.5C 56.5,51.8333 56.5,64.1667 56.5,76.5C 55.5046,64.011 55.1713,51.3443 55.5,38.5C 57.5,38.5 59.5,38.5 61.5,38.5C 61.8287,51.3443 61.4954,64.011 60.5,76.5 Z"/></g>
<g><path style="opacity:1" fill="#fefffe" d="M 60.5,76.5 C 59.1667,76.5 57.8333,76.5 56.5,76.5C 56.5,64.1667 56.5,51.8333 56.5,39.5C 57.8333,39.5 59.1667,39.5 60.5,39.5C 60.5,51.8333 60.5,64.1667 60.5,76.5 Z"/></g>
<g><path style="opacity:1" fill="#beaae0" d="M 43.5,45.5 C 43.5,44.1667 43.5,42.8333 43.5,41.5C 35.5,41.5 27.5,41.5 19.5,41.5C 19.5,53.1667 19.5,64.8333 19.5,76.5C 18.5049,64.6783 18.1716,52.6783 18.5,40.5C 27.1667,40.5 35.8333,40.5 44.5,40.5C 44.7845,42.4147 44.4511,44.0813 43.5,45.5 Z"/></g>
<g><path style="opacity:1" fill="#fefefe" d="M 43.5,45.5 C 37.1667,45.5 30.8333,45.5 24.5,45.5C 23.5151,49.6344 23.1818,53.9677 23.5,58.5C 29.5,58.5 35.5,58.5 41.5,58.5C 41.5,59.5 41.5,60.5 41.5,61.5C 35.5,61.5 29.5,61.5 23.5,61.5C 23.5,66.5 23.5,71.5 23.5,76.5C 22.1667,76.5 20.8333,76.5 19.5,76.5C 19.5,64.8333 19.5,53.1667 19.5,41.5C 27.5,41.5 35.5,41.5 43.5,41.5C 43.5,42.8333 43.5,44.1667 43.5,45.5 Z"/></g>
<g><path style="opacity:1" fill="#f3eff9" d="M 284.5,72.5 C 284.539,73.5832 284.873,74.5832 285.5,75.5C 283.647,76.7596 281.814,76.7596 280,75.5C 279.361,72.8877 278.194,70.5543 276.5,68.5C 270.202,67.5037 263.868,67.1703 257.5,67.5C 256.426,70.6451 255.093,73.6451 253.5,76.5C 251.833,76.5 250.167,76.5 248.5,76.5C 252.066,69.3723 255.066,62.039 257.5,54.5C 260.163,50.5066 262.33,46.1732 264,41.5C 266.139,40.2309 268.305,40.2309 270.5,41.5C 274.907,51.9781 279.573,62.3114 284.5,72.5 Z M 269.5,63.5 C 267.469,61.4776 265.135,59.8109 262.5,58.5C 263.987,54.8546 265.487,51.188 267,47.5C 269.628,52.5901 272.128,57.7568 274.5,63C 272.866,63.4935 271.199,63.6602 269.5,63.5 Z"/></g>
<g><path style="opacity:1" fill="#bba7df" d="M 301.5,76.5 C 301.5,64.8333 301.5,53.1667 301.5,41.5C 300.167,41.5 298.833,41.5 297.5,41.5C 297.5,53.1667 297.5,64.8333 297.5,76.5C 296.505,64.6783 296.172,52.6783 296.5,40.5C 298.5,40.5 300.5,40.5 302.5,40.5C 302.828,52.6783 302.495,64.6783 301.5,76.5 Z"/></g>
<g><path style="opacity:1" fill="#fefffe" d="M 301.5,76.5 C 300.167,76.5 298.833,76.5 297.5,76.5C 297.5,64.8333 297.5,53.1667 297.5,41.5C 298.833,41.5 300.167,41.5 301.5,41.5C 301.5,53.1667 301.5,64.8333 301.5,76.5 Z"/></g>
<g><path style="opacity:1" fill="#784fbf" d="M 182.5,27.5 C 183.987,28.8036 185.654,29.9702 187.5,31C 182.306,32.3305 182.306,33.8305 187.5,35.5C 190.919,32.8539 193.919,33.3539 196.5,37C 195.167,37.6667 193.833,38.3333 192.5,39C 193.696,39.6543 193.696,40.1543 192.5,40.5C 190.681,38.0886 188.681,37.922 186.5,40C 187.833,41 189.167,42 190.5,43C 189.5,44 188.5,45 187.5,46C 188.025,46.6924 188.692,47.1924 189.5,47.5C 191.764,46.7708 193.097,45.6041 193.5,44C 192.044,43.5774 191.544,42.7441 192,41.5C 194.153,44.3517 196.653,44.8517 199.5,43C 199.5,42 199.5,41 199.5,40C 201.301,39.6827 201.634,39.016 200.5,38C 201.833,37.3333 203.167,36.6667 204.5,36C 203.167,35 201.833,34 200.5,33C 203.068,31.0962 205.401,31.4295 207.5,34C 206.833,34.3333 206.167,34.6667 205.5,35C 206.833,36 208.167,37 209.5,38C 208.833,38.3333 208.167,38.6667 207.5,39C 208.833,40 210.167,41 211.5,42C 210.5,43 209.5,44 208.5,45C 209.167,45.6667 209.833,46.3333 210.5,47C 208.5,46.3333 206.5,45.6667 204.5,45C 204.5,46 204.5,47 204.5,48C 203.833,48.3333 203.167,48.6667 202.5,49C 204.5,49.6667 206.5,50.3333 208.5,51C 207.167,52.6667 205.833,54.3333 204.5,56C 206.79,58.2674 206.124,59.2674 202.5,59C 202.799,57.927 202.799,56.7603 202.5,55.5C 203.413,53.9139 203.413,52.4139 202.5,51C 197.89,49.7095 193.223,49.3762 188.5,50C 184.249,52.044 182.249,55.2107 182.5,59.5C 182.565,59.9382 182.399,60.2716 182,60.5C 180.981,59.3128 179.814,58.3128 178.5,57.5C 178.167,58.1667 177.833,58.8333 177.5,59.5C 176.167,58.5 174.833,57.5 173.5,56.5C 172.583,57.1272 171.583,57.4606 170.5,57.5C 170.665,54.4816 170.498,51.4816 170,48.5C 168.644,49.3802 167.144,49.7135 165.5,49.5C 163.068,48.2498 160.734,46.7498 158.5,45C 159.167,44.6667 159.833,44.3333 160.5,44C 159.044,43.5774 158.544,42.7441 159,41.5C 159.414,41.9574 159.914,42.2907 160.5,42.5C 162.871,42.1084 163.538,41.1084 162.5,39.5C 163.167,39.5 163.833,39.5 164.5,39.5C 163.915,42.2605 164.915,43.9272 167.5,44.5C 171.681,43.4949 172.347,41.4949 169.5,38.5C 169.217,37.7109 168.717,37.0442 168,36.5C 165.952,37.4232 164.119,36.9232 162.5,35C 164.695,33.627 167.029,33.2937 169.5,34C 172.167,34.6667 172.167,35.3333 169.5,36C 171.761,39.0239 174.428,39.6906 177.5,38C 176.167,37 174.833,36 173.5,35C 174.167,34.6667 174.833,34.3333 175.5,34C 174.328,33.5814 173.328,32.9147 172.5,32C 174.898,31.6256 177.231,31.6256 179.5,32C 177.999,30.7485 176.332,29.7485 174.5,29C 176.303,28.3632 177.636,27.1965 178.5,25.5C 179.622,26.6302 180.956,27.2969 182.5,27.5 Z"/></g>
<g><path style="opacity:1" fill="#ede6f6" d="M 82.5,49.5 C 96.6516,48.1508 102.818,54.4841 101,68.5C 93.2049,79.6545 84.5382,80.3212 75,70.5C 71.3144,61.0428 73.8144,54.0428 82.5,49.5 Z M 83.5,54.5 C 90.9149,52.8627 95.2483,55.696 96.5,63C 94.2472,72.1941 89.0805,74.3608 81,69.5C 77.8031,63.9288 78.6364,58.9288 83.5,54.5 Z"/></g>
<g><path style="opacity:1" fill="#f6f3fa" d="M 202.5,55.5 C 199.844,54.842 197.178,54.1754 194.5,53.5C 191.601,53.6161 189.268,54.7827 187.5,57C 187.759,58.2613 188.426,59.2613 189.5,60C 193.612,60.6216 197.612,61.6216 201.5,63C 204.125,65.1962 205.125,68.0295 204.5,71.5C 201.85,75.6008 198.017,77.2675 193,76.5C 189.63,76.6673 186.463,76.0006 183.5,74.5C 182.614,73.675 182.281,72.675 182.5,71.5C 183.265,71.0766 184.098,70.7432 185,70.5C 189.493,72.6178 193.993,72.7844 198.5,71C 199.833,69.6667 199.833,68.3333 198.5,67C 194.299,65.9597 190.132,64.793 186,63.5C 184.588,62.3144 183.421,60.981 182.5,59.5C 182.249,55.2107 184.249,52.044 188.5,50C 193.223,49.3762 197.89,49.7095 202.5,51C 203.413,52.4139 203.413,53.9139 202.5,55.5 Z"/></g>
<g><path style="opacity:1" fill="#faf8fc" d="M 240.5,60.5 C 240.5,61.8333 240.5,63.1667 240.5,64.5C 233.5,64.5 226.5,64.5 219.5,64.5C 219.327,68.1704 220.993,70.6704 224.5,72C 228.95,73.1136 232.95,72.2803 236.5,69.5C 237.705,70.5769 238.372,71.9102 238.5,73.5C 237.317,74.5045 235.984,75.3378 234.5,76C 229.472,76.5883 224.472,76.4216 219.5,75.5C 218.836,73.513 217.669,71.8463 216,70.5C 211.598,58.9606 215.265,51.9606 227,49.5C 234.957,49.0721 239.457,52.7388 240.5,60.5 Z"/></g>
<g><path style="opacity:1" fill="#ece5f6" d="M 146.5,57.5 C 147.942,55.4604 148.942,53.127 149.5,50.5C 151.167,49.1667 152.833,49.1667 154.5,50.5C 153.16,53.8939 151.826,57.2273 150.5,60.5C 148.826,65.8437 147.159,71.1771 145.5,76.5C 143.208,76.7564 141.041,76.4231 139,75.5C 136.667,69.5 134.333,63.5 132,57.5C 129.667,63.5 127.333,69.5 125,75.5C 122.959,76.4231 120.792,76.7564 118.5,76.5C 115.698,67.4262 112.698,58.4262 109.5,49.5C 111.467,49.2606 113.301,49.5939 115,50.5C 117.055,56.9422 119.388,63.2755 122,69.5C 124.5,63.1667 127,56.8333 129.5,50.5C 131.353,49.2404 133.186,49.2404 135,50.5C 137.333,56.8333 139.667,63.1667 142,69.5C 143.791,65.5885 145.291,61.5885 146.5,57.5 Z"/></g>
<g><path style="opacity:1" fill="#f8f6fc" d="M 170.5,57.5 C 170.5,63.5 170.5,69.5 170.5,75.5C 169.081,76.4511 167.415,76.7845 165.5,76.5C 165.5,67.5 165.5,58.5 165.5,49.5C 167.144,49.7135 168.644,49.3802 170,48.5C 170.498,51.4816 170.665,54.4816 170.5,57.5 Z"/></g>
<g><path style="opacity:1" fill="#7a52c0" d="M 234.5,57.5 C 233.851,58.6063 233.517,59.6063 233.5,60.5C 230.167,60.5 226.833,60.5 223.5,60.5C 221.787,60.1207 220.787,59.1207 220.5,57.5C 225.167,52.1667 229.833,52.1667 234.5,57.5 Z"/></g>
<g><path style="opacity:1" fill="#c2afe2" d="M 24.5,45.5 C 24.5,49.5 24.5,53.5 24.5,57.5C 30.5,57.5 36.5,57.5 42.5,57.5C 42.5,59.1667 42.5,60.8333 42.5,62.5C 36.5,62.5 30.5,62.5 24.5,62.5C 24.8195,67.3633 24.4861,72.03 23.5,76.5C 23.5,71.5 23.5,66.5 23.5,61.5C 29.5,61.5 35.5,61.5 41.5,61.5C 41.5,60.5 41.5,59.5 41.5,58.5C 35.5,58.5 29.5,58.5 23.5,58.5C 23.1818,53.9677 23.5151,49.6344 24.5,45.5 Z"/></g>
<g><path style="opacity:1" fill="#a184d2" d="M 220.5,57.5 C 220.787,59.1207 221.787,60.1207 223.5,60.5C 226.833,60.5 230.167,60.5 233.5,60.5C 233.517,59.6063 233.851,58.6063 234.5,57.5C 235.434,58.5676 235.768,59.901 235.5,61.5C 230.167,61.5 224.833,61.5 219.5,61.5C 219.232,59.901 219.566,58.5676 220.5,57.5 Z"/></g>
<g><path style="opacity:1" fill="#805ac3" d="M 262.5,58.5 C 265.135,59.8109 267.469,61.4776 269.5,63.5C 266.15,63.665 262.817,63.4983 259.5,63C 260.399,61.3484 261.399,59.8484 262.5,58.5 Z"/></g>
<g><path style="opacity:1" fill="#7b53c0" d="M 182.5,59.5 C 183.421,60.981 184.588,62.3144 186,63.5C 190.132,64.793 194.299,65.9597 198.5,67C 199.833,68.3333 199.833,69.6667 198.5,71C 193.993,72.7844 189.493,72.6178 185,70.5C 184.098,70.7432 183.265,71.0766 182.5,71.5C 181.684,73.1436 180.35,74.3103 178.5,75C 184.811,75.2054 185.478,76.5388 180.5,79C 182.167,80.1667 183.833,81.3333 185.5,82.5C 185.833,81.8333 186.167,81.1667 186.5,80.5C 187.7,81.5312 189.034,82.3645 190.5,83C 189.833,83.3333 189.167,83.6667 188.5,84C 189.571,84.8518 190.571,85.6851 191.5,86.5C 191.5,86.8333 191.5,87.1667 191.5,87.5C 184.337,83.7529 177.337,79.7529 170.5,75.5C 170.5,69.5 170.5,63.5 170.5,57.5C 171.583,57.4606 172.583,57.1272 173.5,56.5C 174.833,57.5 176.167,58.5 177.5,59.5C 177.833,58.8333 178.167,58.1667 178.5,57.5C 179.814,58.3128 180.981,59.3128 182,60.5C 182.399,60.2716 182.565,59.9382 182.5,59.5 Z"/></g>
<g><path style="opacity:1" fill="#825dc4" d="M 284.5,72.5 C 287.689,74.2599 291.022,75.7599 294.5,77C 293.304,77.6543 293.304,78.1543 294.5,78.5C 295.995,77.2947 297.328,77.2947 298.5,78.5C 295.979,80.701 293.479,83.0343 291,85.5C 290.383,84.5509 290.549,83.7175 291.5,83C 290.5,82.3333 289.5,82.3333 288.5,83C 285.763,84.6141 283.597,86.7808 282,89.5C 281.333,88.1667 280.667,86.8333 280,85.5C 278.333,87.1667 276.667,88.8333 275,90.5C 275.195,88.8739 275.195,87.2072 275,85.5C 272.936,88.2736 270.436,90.1069 267.5,91C 270.586,87.2435 274.252,84.2435 278.5,82C 279.696,81.3457 279.696,80.8457 278.5,80.5C 272.192,84.1594 266.192,88.1594 260.5,92.5C 261.412,91.2618 261.579,89.9285 261,88.5C 257.034,91.464 253.367,94.7974 250,98.5C 251.667,95.5 253.333,92.5 255,89.5C 250.296,92.6917 245.962,96.3584 242,100.5C 242.546,97.9067 244.046,95.7401 246.5,94C 245.5,93.6667 244.5,93.3333 243.5,93C 245.093,92.0513 246.426,90.8846 247.5,89.5C 249.253,87.7775 251.253,86.2775 253.5,85C 250.833,83.6667 248.167,82.3333 245.5,81C 248.167,80.3333 248.167,79.6667 245.5,79C 246.5,78.5 247.5,78 248.5,77.5C 249.713,80.9562 251.713,81.7895 254.5,80C 251.294,79.0735 250.961,77.9068 253.5,76.5C 255.093,73.6451 256.426,70.6451 257.5,67.5C 263.868,67.1703 270.202,67.5037 276.5,68.5C 278.194,70.5543 279.361,72.8877 280,75.5C 281.814,76.7596 283.647,76.7596 285.5,75.5C 284.873,74.5832 284.539,73.5832 284.5,72.5 Z"/></g>
<g><path style="opacity:1" fill="#815ac3" d="M 251.5,49.5 C 253.54,51.177 255.54,52.8437 257.5,54.5C 255.066,62.039 252.066,69.3723 248.5,76.5C 245.138,75.546 241.805,74.546 238.5,73.5C 238.372,71.9102 237.705,70.5769 236.5,69.5C 232.95,72.2803 228.95,73.1136 224.5,72C 220.993,70.6704 219.327,68.1704 219.5,64.5C 226.5,64.5 233.5,64.5 240.5,64.5C 240.5,63.1667 240.5,61.8333 240.5,60.5C 241.289,60.7828 241.956,61.2828 242.5,62C 241.289,62.8928 241.289,63.7261 242.5,64.5C 243.62,65.8334 244.953,66.3334 246.5,66C 246.5,65 246.5,64 246.5,63C 247.167,62.6667 247.833,62.3333 248.5,62C 247.167,61 245.833,60 244.5,59C 245.5,58 246.5,57 247.5,56C 247.167,55.6667 246.833,55.3333 246.5,55C 247.962,55.0628 249.295,55.7295 250.5,57C 249.833,57.3333 249.167,57.6667 248.5,58C 250.059,59.7557 251.726,59.7557 253.5,58C 251.109,56.6914 251.109,55.6914 253.5,55C 251.651,53.907 249.984,52.5737 248.5,51C 249.449,50.3828 250.282,50.5494 251,51.5C 251.464,50.9056 251.631,50.2389 251.5,49.5 Z"/></g>
<g><path style="opacity:1" fill="#7f58c2" d="M 182.5,71.5 C 182.281,72.675 182.614,73.675 183.5,74.5C 186.463,76.0006 189.63,76.6673 193,76.5C 198.017,77.2675 201.85,75.6008 204.5,71.5C 206.305,72.2371 207.971,73.2371 209.5,74.5C 211.398,73.2655 213.065,73.5989 214.5,75.5C 214.833,74.8333 215.167,74.1667 215.5,73.5C 216.622,74.6302 217.956,75.2969 219.5,75.5C 224.472,76.4216 229.472,76.5883 234.5,76C 235.984,75.3378 237.317,74.5045 238.5,73.5C 241.805,74.546 245.138,75.546 248.5,76.5C 250.167,76.5 251.833,76.5 253.5,76.5C 250.961,77.9068 251.294,79.0735 254.5,80C 251.713,81.7895 249.713,80.9562 248.5,77.5C 247.5,78 246.5,78.5 245.5,79C 248.167,79.6667 248.167,80.3333 245.5,81C 248.167,82.3333 250.833,83.6667 253.5,85C 251.253,86.2775 249.253,87.7775 247.5,89.5C 242.932,90.8981 242.598,90.3981 246.5,88C 244.776,87.5518 244.109,86.7185 244.5,85.5C 242.998,86.0831 241.665,86.9164 240.5,88C 241.167,88.3333 241.833,88.6667 242.5,89C 237.309,92.5868 231.975,95.5868 226.5,98C 228.394,96.9207 228.727,95.5874 227.5,94C 228.672,93.5814 229.672,92.9147 230.5,92C 230.167,91.8333 229.833,91.6667 229.5,91.5C 226.961,93.2003 224.295,94.7003 221.5,96C 222.5,96.3333 223.5,96.6667 224.5,97C 223.09,98.3717 221.423,99.205 219.5,99.5C 212.428,97.6857 206.428,95.5191 201.5,93C 203.5,92 205.5,91 207.5,90C 205.167,88.8333 202.833,87.6667 200.5,86.5C 199.893,86.6236 199.56,86.9569 199.5,87.5C 197.965,86.6457 196.632,86.6457 195.5,87.5C 194.167,87.1667 192.833,86.8333 191.5,86.5C 190.571,85.6851 189.571,84.8518 188.5,84C 189.167,83.6667 189.833,83.3333 190.5,83C 189.034,82.3645 187.7,81.5312 186.5,80.5C 186.167,81.1667 185.833,81.8333 185.5,82.5C 183.833,81.3333 182.167,80.1667 180.5,79C 185.478,76.5388 184.811,75.2054 178.5,75C 180.35,74.3103 181.684,73.1436 182.5,71.5 Z"/></g>
<g><path style="opacity:1" fill="#9170cb" d="M 298.5,78.5 C 306.075,80.1535 313.741,81.1535 321.5,81.5C 321.5,82.1667 321.5,82.8333 321.5,83.5C 320.833,83.5 320.167,83.5 319.5,83.5C 317.516,82.3058 315.516,82.3058 313.5,83.5C 314.376,84.2508 315.376,84.7508 316.5,85C 313.167,85.3333 309.833,85.6667 306.5,86C 308.167,86.3333 309.833,86.6667 311.5,87C 306.992,86.7096 302.659,87.0429 298.5,88C 299.833,88.3333 301.167,88.6667 302.5,89C 301.058,89.3768 300.058,90.2101 299.5,91.5C 296.53,90.8353 293.53,90.1686 290.5,89.5C 288.506,92.5682 285.839,93.2348 282.5,91.5C 281.304,91.8457 281.304,92.3457 282.5,93C 283.833,93.3333 285.167,93.6667 286.5,94C 286.167,94.3333 285.833,94.6667 285.5,95C 280.964,95.4838 277.464,96.3172 275,97.5C 263.962,96.2833 263.795,96.7833 274.5,99C 271.812,99.3924 269.145,99.8924 266.5,100.5C 264.879,99.2948 263.546,99.4615 262.5,101C 263.5,101.333 264.5,101.667 265.5,102C 263.19,102.497 260.857,102.663 258.5,102.5C 258.918,101.778 259.584,101.278 260.5,101C 259.833,100.667 259.167,100.333 258.5,100C 259.355,97.5644 260.021,95.0644 260.5,92.5C 266.192,88.1594 272.192,84.1594 278.5,80.5C 279.696,80.8457 279.696,81.3457 278.5,82C 274.252,84.2435 270.586,87.2435 267.5,91C 270.436,90.1069 272.936,88.2736 275,85.5C 275.195,87.2072 275.195,88.8739 275,90.5C 276.667,88.8333 278.333,87.1667 280,85.5C 280.667,86.8333 281.333,88.1667 282,89.5C 283.597,86.7808 285.763,84.6141 288.5,83C 289.5,82.3333 290.5,82.3333 291.5,83C 290.549,83.7175 290.383,84.5509 291,85.5C 293.479,83.0343 295.979,80.701 298.5,78.5 Z"/></g>
<g><path style="opacity:1" fill="#9f84d2" d="M 191.5,87.5 C 192.833,88.1667 192.833,88.1667 191.5,87.5 Z"/></g>
<g><path style="opacity:1" fill="#9f84d2" d="M 195.5,87.5 C 196.833,88.1667 196.833,88.1667 195.5,87.5 Z"/></g>
<g><path style="opacity:1" fill="#9678ce" d="M 199.5,87.5 C 200.833,88.1667 200.833,88.1667 199.5,87.5 Z"/></g>
<g><path style="opacity:1" fill="#b6a0dc" d="M 319.5,83.5 C 319.611,84.1174 319.944,84.6174 320.5,85C 318.63,86.3662 316.63,87.5328 314.5,88.5C 312.877,87.5244 311.543,88.0244 310.5,90C 306.73,91.2929 303.063,91.7929 299.5,91.5C 300.058,90.2101 301.058,89.3768 302.5,89C 301.167,88.6667 299.833,88.3333 298.5,88C 302.659,87.0429 306.992,86.7096 311.5,87C 309.833,86.6667 308.167,86.3333 306.5,86C 309.833,85.6667 313.167,85.3333 316.5,85C 315.376,84.7508 314.376,84.2508 313.5,83.5C 315.516,82.3058 317.516,82.3058 319.5,83.5 Z"/></g>
<g><path style="opacity:1" fill="#9f84d2" d="M 194.5,89.5 C 193.833,88.1667 193.833,88.1667 194.5,89.5 Z"/></g>
<g><path style="opacity:1" fill="#9f84d2" d="M 198.5,89.5 C 197.833,88.1667 197.833,88.1667 198.5,89.5 Z"/></g>
<g><path style="opacity:1" fill="#8c6bc9" d="M 201.5,88.5 C 202.833,89.1667 202.833,89.1667 201.5,88.5 Z"/></g>
<g><path style="opacity:1" fill="#997bcf" d="M 194.5,89.5 C 195.492,89.3284 196.158,89.6618 196.5,90.5C 195.508,90.6716 194.842,90.3382 194.5,89.5 Z"/></g>
<g><path style="opacity:1" fill="#8a67c7" d="M 198.5,90.5 C 198.5,90.1667 198.5,89.8333 198.5,89.5C 201.167,89.8333 201.167,90.1667 198.5,90.5 Z"/></g>
<g><path style="opacity:1" fill="#8c6bc9" d="M 203.5,89.5 C 204.833,90.1667 204.833,90.1667 203.5,89.5 Z"/></g>
<g><path style="opacity:1" fill="#997bcf" d="M 196.5,90.5 C 197.167,90.5 197.833,90.5 198.5,90.5C 197.833,91.8333 197.167,91.8333 196.5,90.5 Z"/></g>
<g><path style="opacity:1" fill="#8c6bc9" d="M 201.5,90.5 C 202.833,91.1667 202.833,91.1667 201.5,90.5 Z"/></g>
<g><path style="opacity:1" fill="#8c6bc9" d="M 199.5,91.5 C 200.833,92.1667 200.833,92.1667 199.5,91.5 Z"/></g>
<g><path style="opacity:1" fill="#b19ada" d="M 299.5,91.5 C 299.607,93.3786 299.107,93.7119 298,92.5C 296.684,95.0468 294.851,95.7135 292.5,94.5C 291.167,95.5 289.833,96.5 288.5,97.5C 287.914,97.2907 287.414,96.9574 287,96.5C 285.167,97.6667 283.333,98.8333 281.5,100C 282.094,100.464 282.761,100.631 283.5,100.5C 277.574,102.218 271.574,103.552 265.5,104.5C 264.5,104.5 263.5,104.5 262.5,104.5C 258.688,103.676 254.688,103.176 250.5,103C 249.112,102.111 249.278,101.611 251,101.5C 253.434,102.322 255.934,102.656 258.5,102.5C 260.857,102.663 263.19,102.497 265.5,102C 264.5,101.667 263.5,101.333 262.5,101C 263.546,99.4615 264.879,99.2948 266.5,100.5C 269.145,99.8924 271.812,99.3924 274.5,99C 263.795,96.7833 263.962,96.2833 275,97.5C 277.464,96.3172 280.964,95.4838 285.5,95C 285.833,94.6667 286.167,94.3333 286.5,94C 285.167,93.6667 283.833,93.3333 282.5,93C 281.304,92.3457 281.304,91.8457 282.5,91.5C 285.839,93.2348 288.506,92.5682 290.5,89.5C 293.53,90.1686 296.53,90.8353 299.5,91.5 Z"/></g>
<g><path style="opacity:1" fill="#8e6dc9" d="M 247.5,89.5 C 246.426,90.8846 245.093,92.0513 243.5,93C 244.5,93.3333 245.5,93.6667 246.5,94C 244.046,95.7401 242.546,97.9067 242,100.5C 245.962,96.3584 250.296,92.6917 255,89.5C 253.333,92.5 251.667,95.5 250,98.5C 253.367,94.7974 257.034,91.464 261,88.5C 261.579,89.9285 261.412,91.2618 260.5,92.5C 260.021,95.0644 259.355,97.5644 258.5,100C 259.167,100.333 259.833,100.667 260.5,101C 259.584,101.278 258.918,101.778 258.5,102.5C 255.934,102.656 253.434,102.322 251,101.5C 249.278,101.611 249.112,102.111 250.5,103C 254.688,103.176 258.688,103.676 262.5,104.5C 255.167,104.5 247.833,104.5 240.5,104.5C 233.384,103.369 226.384,101.702 219.5,99.5C 221.423,99.205 223.09,98.3717 224.5,97C 223.5,96.6667 222.5,96.3333 221.5,96C 224.295,94.7003 226.961,93.2003 229.5,91.5C 229.833,91.6667 230.167,91.8333 230.5,92C 229.672,92.9147 228.672,93.5814 227.5,94C 228.727,95.5874 228.394,96.9207 226.5,98C 231.975,95.5868 237.309,92.5868 242.5,89C 241.833,88.6667 241.167,88.3333 240.5,88C 241.665,86.9164 242.998,86.0831 244.5,85.5C 244.109,86.7185 244.776,87.5518 246.5,88C 242.598,90.3981 242.932,90.8981 247.5,89.5 Z"/></g>
<g><path style="opacity:1" fill="#ddd2ef" d="M 319.5,83.5 C 320.167,83.5 320.833,83.5 321.5,83.5C 321.5,85.1667 321.5,86.8333 321.5,88.5C 309.017,93.0743 296.351,97.0743 283.5,100.5C 282.761,100.631 282.094,100.464 281.5,100C 283.333,98.8333 285.167,97.6667 287,96.5C 287.414,96.9574 287.914,97.2907 288.5,97.5C 289.833,96.5 291.167,95.5 292.5,94.5C 294.851,95.7135 296.684,95.0468 298,92.5C 299.107,93.7119 299.607,93.3786 299.5,91.5C 303.063,91.7929 306.73,91.2929 310.5,90C 311.543,88.0244 312.877,87.5244 314.5,88.5C 316.63,87.5328 318.63,86.3662 320.5,85C 319.944,84.6174 319.611,84.1174 319.5,83.5 Z"/></g>
</svg>
