<svg id="svg" version="1.1" xmlns="http://www.w3.org/2000/svg" xmlns:xlink="http://www.w3.org/1999/xlink" width="400" height="400" viewBox="0, 0, 400,400"><g id="svgg"><path id="path0" d="M263.200 16.194 C 260.890 16.913,257.698 17.974,256.108 18.551 C 254.517 19.128,252.897 19.599,252.508 19.597 C 252.118 19.596,250.180 20.295,248.200 21.152 C 246.220 22.009,243.520 23.117,242.200 23.614 C 240.880 24.112,239.530 24.729,239.200 24.985 C 238.355 25.640,235.722 26.690,233.600 27.218 C 232.610 27.464,231.440 27.894,231.000 28.175 C 229.451 29.161,223.359 31.703,219.800 32.848 C 217.820 33.485,215.120 34.530,213.800 35.171 C 207.571 38.193,201.498 40.764,199.600 41.181 C 198.830 41.351,196.652 42.226,194.761 43.127 C 192.869 44.028,190.259 45.157,188.961 45.634 C 187.662 46.112,186.330 46.727,186.000 47.000 C 185.374 47.519,180.738 49.200,179.934 49.200 C 179.680 49.200,177.469 50.174,175.021 51.364 C 172.573 52.555,168.660 54.168,166.327 54.948 C 163.993 55.729,160.549 57.087,158.673 57.966 C 156.797 58.845,154.123 60.029,152.731 60.599 C 151.339 61.168,149.545 61.986,148.746 62.417 C 147.946 62.847,146.906 63.200,146.436 63.200 C 145.965 63.200,144.370 63.805,142.890 64.545 C 141.411 65.284,139.480 66.115,138.600 66.391 C 137.720 66.666,135.200 67.749,133.000 68.797 C 130.800 69.844,128.370 70.834,127.600 70.997 C 126.830 71.160,124.850 71.925,123.200 72.696 C 118.950 74.684,112.538 77.200,111.721 77.200 C 111.341 77.200,109.394 78.007,107.394 78.993 C 103.487 80.919,99.412 82.530,96.200 83.418 C 95.100 83.722,92.220 84.954,89.800 86.155 C 84.193 88.937,79.473 90.982,75.312 92.433 C 73.503 93.063,70.263 94.414,68.112 95.434 C 64.316 97.234,59.111 99.192,58.106 99.197 C 57.834 99.199,55.584 100.177,53.106 101.371 C 48.468 103.605,46.320 104.472,43.200 105.370 C 41.231 105.936,38.898 106.927,34.600 109.022 C 33.060 109.773,30.810 110.764,29.600 111.225 C 28.390 111.686,27.130 112.287,26.800 112.560 C 26.470 112.834,25.055 113.559,23.655 114.171 C 22.255 114.784,20.512 115.671,19.781 116.143 C 19.050 116.614,17.225 117.769,15.726 118.710 C 11.091 121.617,4.728 128.471,2.181 133.300 C 1.397 134.785,0.586 136.000,0.378 136.000 C 0.145 136.000,-0.000 144.949,-0.000 159.353 L -0.000 182.707 3.350 189.253 C 5.192 192.854,6.826 196.520,6.980 197.400 C 7.134 198.280,12.629 209.800,19.190 223.000 C 25.752 236.200,31.248 247.450,31.404 248.000 C 31.560 248.550,33.828 253.269,36.444 258.486 C 39.060 263.704,41.200 268.441,41.200 269.013 C 41.200 269.585,42.624 272.877,44.364 276.327 C 48.352 284.232,47.638 282.797,57.347 302.400 C 61.869 311.530,65.689 319.450,65.837 320.000 C 65.985 320.550,68.243 325.295,70.853 330.544 C 73.464 335.793,75.600 340.512,75.600 341.031 C 75.600 342.775,95.563 382.364,97.491 384.443 C 98.321 385.338,99.165 386.363,99.367 386.720 C 101.206 389.971,103.618 392.220,108.400 395.139 C 109.830 396.012,111.795 397.463,112.767 398.363 L 114.533 400.000 139.433 400.000 C 153.128 400.000,164.393 399.865,164.467 399.700 C 164.697 399.182,170.475 396.539,173.400 395.614 C 177.210 394.408,183.469 392.062,185.315 391.148 C 186.148 390.735,187.498 390.233,188.315 390.033 C 189.132 389.832,191.330 389.011,193.200 388.208 C 200.690 384.991,203.054 384.059,204.243 383.855 C 204.927 383.738,206.727 383.068,208.243 382.366 C 209.760 381.665,212.890 380.418,215.200 379.595 C 217.510 378.773,220.570 377.646,222.000 377.091 C 223.430 376.535,225.770 375.675,227.200 375.179 C 228.630 374.683,231.510 373.515,233.600 372.584 C 237.452 370.869,242.000 369.118,246.000 367.811 C 247.210 367.416,249.013 366.695,250.006 366.210 C 252.002 365.235,256.545 363.600,257.258 363.600 C 257.509 363.600,259.353 362.817,261.357 361.860 C 264.678 360.274,268.859 358.638,273.600 357.072 C 276.332 356.169,282.550 353.579,282.980 353.166 C 283.189 352.965,283.698 352.800,284.112 352.800 C 284.525 352.800,285.974 352.367,287.332 351.837 C 295.868 348.508,297.258 348.000,297.829 348.000 C 298.178 348.000,300.294 347.124,302.532 346.054 C 306.912 343.958,311.122 342.320,314.000 341.591 C 314.990 341.340,316.160 340.912,316.600 340.640 C 317.040 340.368,318.570 339.722,320.000 339.204 C 321.430 338.685,322.955 338.023,323.389 337.731 C 323.823 337.439,324.492 337.200,324.876 337.200 C 325.259 337.200,327.964 336.234,330.887 335.053 C 333.809 333.873,336.830 332.775,337.600 332.615 C 338.370 332.454,340.440 331.642,342.200 330.811 C 346.886 328.598,349.124 327.600,349.402 327.600 C 349.537 327.600,351.156 326.880,353.000 326.000 C 354.844 325.120,356.652 324.400,357.018 324.400 C 357.385 324.400,358.193 323.995,358.815 323.500 C 359.436 323.005,360.604 322.150,361.409 321.600 C 368.265 316.916,376.800 307.171,376.800 304.026 C 376.800 303.673,377.700 301.537,378.800 299.279 C 379.900 297.021,380.800 294.646,380.800 294.001 C 380.800 293.357,381.166 291.900,381.614 290.765 C 382.587 288.295,382.617 272.251,381.656 267.800 C 381.372 266.480,380.859 263.960,380.517 262.200 C 380.175 260.440,379.569 257.740,379.170 256.200 C 378.356 253.061,377.114 248.095,376.016 243.600 C 374.911 239.072,373.797 235.308,372.641 232.202 C 372.068 230.663,371.600 228.710,371.600 227.862 C 371.600 227.014,371.343 225.754,371.030 225.060 C 370.236 223.306,368.800 217.315,368.800 215.757 C 368.800 215.047,368.461 213.675,368.046 212.707 C 367.053 210.390,365.600 204.742,365.600 203.199 C 365.600 202.526,365.150 200.907,364.600 199.600 C 364.050 198.293,363.600 196.853,363.600 196.399 C 363.600 195.946,363.314 194.905,362.964 194.087 C 362.615 193.269,362.186 191.700,362.013 190.600 C 361.839 189.500,361.201 186.800,360.595 184.600 C 359.989 182.400,359.358 179.690,359.192 178.578 C 358.880 176.487,358.201 173.958,356.565 168.800 C 356.042 167.150,355.264 164.086,354.835 161.991 C 354.406 159.897,353.593 156.805,353.028 155.121 C 352.463 153.437,352.000 151.562,352.000 150.956 C 352.000 149.727,351.157 146.242,349.979 142.600 C 349.552 141.280,348.921 138.670,348.576 136.800 C 347.988 133.615,346.868 129.670,345.225 125.000 C 343.849 121.087,343.600 120.126,343.600 118.720 C 343.600 117.938,343.307 116.601,342.949 115.749 C 342.070 113.655,340.797 108.692,340.450 106.000 C 340.293 104.790,339.973 103.440,339.737 103.000 C 339.017 101.657,337.200 94.845,337.200 93.490 C 337.200 92.789,336.859 91.312,336.441 90.208 C 335.348 87.313,334.000 82.196,334.000 80.937 C 334.000 79.848,332.940 76.008,331.552 72.064 C 331.138 70.890,330.800 69.373,330.800 68.693 C 330.800 67.527,329.897 64.042,328.547 60.000 C 328.216 59.010,327.614 57.030,327.208 55.600 C 326.802 54.170,326.102 52.034,325.652 50.854 C 325.203 49.673,324.718 47.873,324.575 46.854 C 324.308 44.951,320.726 37.687,318.042 33.608 C 315.717 30.073,310.968 25.589,307.781 23.919 C 306.230 23.106,304.629 22.074,304.223 21.625 C 302.114 19.295,298.185 17.658,291.600 16.366 C 290.390 16.128,288.484 15.679,287.365 15.367 C 282.991 14.148,268.140 14.657,263.200 16.194 M282.820 22.460 C 286.045 22.897,293.565 26.516,295.556 28.588 C 296.302 29.365,297.104 30.000,297.338 30.000 C 297.861 30.000,301.576 34.038,301.590 34.622 C 301.596 34.853,302.216 35.640,302.969 36.370 C 303.722 37.099,304.455 38.163,304.598 38.733 C 304.741 39.303,305.409 40.586,306.083 41.585 C 306.855 42.728,307.486 44.363,307.787 46.000 C 308.050 47.430,308.658 49.442,309.138 50.471 C 309.618 51.499,310.266 54.155,310.577 56.372 C 310.939 58.954,311.516 61.167,312.181 62.526 C 312.876 63.945,313.403 66.033,313.772 68.824 C 314.157 71.738,314.641 73.608,315.372 75.010 C 316.125 76.453,316.536 78.089,316.831 80.810 C 317.128 83.542,317.566 85.280,318.402 87.035 C 319.176 88.661,319.708 90.646,320.002 93.016 C 320.280 95.249,320.873 97.544,321.605 99.210 C 322.367 100.948,322.924 103.152,323.224 105.626 C 323.476 107.698,324.025 110.065,324.443 110.884 C 325.366 112.694,326.386 116.864,326.394 118.863 C 326.397 119.667,326.954 121.557,327.631 123.063 C 328.474 124.939,329.029 127.071,329.394 129.841 C 329.759 132.608,330.262 134.544,330.991 135.982 C 331.698 137.378,332.230 139.375,332.577 141.941 C 332.901 144.335,333.494 146.639,334.138 148.010 C 334.848 149.522,335.317 151.476,335.619 154.192 C 335.934 157.017,336.331 158.631,336.994 159.782 C 339.015 163.288,339.471 169.778,338.263 177.800 C 337.865 180.440,337.381 185.120,337.188 188.200 C 336.412 200.564,334.908 211.445,333.207 216.990 C 332.598 218.976,331.965 221.230,331.801 222.000 C 331.273 224.470,327.669 231.969,325.506 235.099 C 318.148 245.742,306.774 246.110,284.800 236.417 C 256.738 224.038,237.870 235.365,232.185 268.000 C 231.102 274.215,230.135 274.589,223.317 271.422 C 220.686 270.200,218.308 269.200,218.034 269.200 C 217.759 269.200,215.704 268.577,213.467 267.815 C 194.290 261.287,183.473 263.986,160.600 281.007 C 134.103 300.726,125.000 301.475,95.629 286.353 C 86.187 281.491,80.398 278.143,70.288 271.699 C 66.060 269.003,61.790 266.500,60.800 266.136 C 57.936 265.083,55.659 263.508,55.120 262.207 C 54.847 261.548,54.125 260.486,53.515 259.848 C 52.540 258.827,51.609 256.644,51.602 255.362 C 51.601 255.121,51.215 254.581,50.745 254.162 C 49.789 253.310,48.800 251.226,48.800 250.061 C 48.800 249.641,48.181 248.268,47.424 247.011 C 46.667 245.754,45.927 244.178,45.780 243.509 C 45.633 242.840,44.918 241.514,44.192 240.562 C 43.465 239.610,42.750 238.281,42.602 237.609 C 42.454 236.936,41.742 235.405,41.020 234.205 C 40.297 233.005,39.590 231.343,39.449 230.511 C 39.308 229.680,38.564 228.018,37.796 226.819 C 37.028 225.619,36.400 224.355,36.400 224.009 C 36.400 223.664,35.769 222.424,34.998 221.253 C 34.227 220.082,33.477 218.650,33.332 218.070 C 33.186 217.491,32.465 215.988,31.728 214.732 C 30.992 213.475,30.277 211.852,30.138 211.124 C 29.831 209.502,29.355 208.529,28.174 207.110 C 27.676 206.510,27.140 205.430,26.984 204.710 C 26.828 203.989,26.092 202.481,25.350 201.359 C 24.607 200.236,24.000 199.034,24.000 198.688 C 24.000 198.341,23.369 196.847,22.598 195.368 C 21.826 193.888,20.982 191.940,20.722 191.039 C 20.462 190.137,19.753 188.820,19.146 188.111 C 18.159 186.956,17.208 184.614,17.202 183.320 C 17.201 183.056,16.930 182.689,16.600 182.504 C 15.813 182.063,14.400 179.271,14.400 178.156 C 14.400 177.674,13.776 176.353,13.013 175.219 C 12.250 174.086,11.458 172.549,11.252 171.805 C 11.047 171.060,10.341 169.764,9.683 168.925 C 7.115 165.648,5.694 144.153,7.759 139.800 C 10.387 134.259,10.961 133.165,11.452 132.757 C 11.753 132.507,12.000 132.054,12.000 131.751 C 12.000 131.448,12.184 131.200,12.410 131.200 C 12.635 131.200,12.987 130.759,13.192 130.221 C 13.679 128.940,16.262 126.096,17.570 125.400 C 18.136 125.099,19.050 124.426,19.600 123.904 C 21.385 122.212,25.571 119.640,27.509 119.045 C 28.549 118.725,30.639 117.820,32.153 117.032 C 33.667 116.244,35.171 115.600,35.495 115.600 C 35.819 115.600,36.920 115.180,37.942 114.668 C 39.626 113.823,40.940 113.376,42.885 112.988 C 43.974 112.771,46.400 111.539,46.400 111.203 C 46.400 110.813,48.255 110.040,49.805 109.784 C 51.197 109.554,54.094 108.371,54.434 107.893 C 54.563 107.713,56.003 107.114,57.634 106.562 C 59.266 106.011,61.010 105.291,61.511 104.963 C 62.012 104.635,63.632 103.996,65.111 103.543 C 66.590 103.089,68.733 102.209,69.873 101.587 C 71.013 100.965,72.496 100.370,73.168 100.264 C 73.841 100.158,75.518 99.526,76.895 98.860 C 78.273 98.194,79.940 97.518,80.600 97.356 C 81.260 97.195,82.700 96.575,83.800 95.979 C 84.900 95.383,86.250 94.760,86.800 94.595 C 87.350 94.430,89.537 93.517,91.660 92.566 C 93.783 91.616,95.943 90.780,96.460 90.709 C 96.977 90.639,98.390 90.021,99.600 89.338 C 100.810 88.655,102.515 87.968,103.389 87.813 C 104.263 87.657,106.243 86.935,107.789 86.207 C 109.335 85.479,111.410 84.555,112.400 84.153 C 113.390 83.751,114.290 83.302,114.400 83.156 C 114.697 82.761,117.605 81.600,118.296 81.600 C 118.625 81.600,120.493 80.880,122.448 80.000 C 124.402 79.120,126.301 78.400,126.668 78.400 C 127.035 78.400,128.263 77.876,129.397 77.237 C 130.531 76.597,132.397 75.794,133.543 75.454 C 134.690 75.114,136.476 74.391,137.514 73.848 C 138.551 73.305,140.120 72.643,141.000 72.378 C 141.880 72.113,142.780 71.761,143.000 71.597 C 143.220 71.432,143.850 71.165,144.400 71.002 C 144.950 70.839,145.670 70.477,146.000 70.198 C 146.330 69.919,147.568 69.487,148.750 69.238 C 149.933 68.990,151.913 68.171,153.150 67.418 C 154.388 66.665,156.432 65.756,157.693 65.398 C 158.954 65.040,160.082 64.591,160.200 64.400 C 160.395 64.084,163.900 62.931,165.763 62.570 C 166.182 62.488,167.172 61.987,167.963 61.455 C 168.753 60.923,170.384 60.170,171.586 59.783 C 172.788 59.396,174.678 58.586,175.786 57.984 C 176.894 57.382,178.430 56.759,179.200 56.598 C 179.970 56.438,181.606 55.811,182.836 55.205 C 184.066 54.600,185.776 53.880,186.636 53.605 C 188.455 53.024,190.911 51.947,191.200 51.604 C 191.310 51.473,192.210 51.113,193.200 50.804 C 194.190 50.494,195.901 49.763,197.002 49.179 C 198.103 48.594,200.263 47.803,201.802 47.420 C 203.341 47.038,205.155 46.305,205.833 45.793 C 206.511 45.280,208.112 44.557,209.391 44.185 C 210.669 43.814,212.634 43.014,213.758 42.408 C 214.881 41.802,217.105 40.917,218.700 40.442 C 220.295 39.966,221.600 39.420,221.600 39.227 C 221.600 39.035,222.851 38.498,224.380 38.034 C 225.909 37.569,227.269 37.012,227.403 36.795 C 227.537 36.578,227.997 36.400,228.424 36.400 C 228.851 36.400,229.200 36.227,229.200 36.015 C 229.200 35.699,231.297 34.938,233.000 34.637 C 233.894 34.478,236.800 33.025,236.800 32.736 C 236.800 32.565,238.287 31.972,240.104 31.418 C 241.921 30.864,243.766 30.165,244.204 29.865 C 244.891 29.394,247.191 28.641,247.509 28.783 C 247.569 28.810,248.580 28.304,249.757 27.658 C 250.933 27.013,253.314 25.995,255.048 25.397 C 256.782 24.799,258.650 23.996,259.200 23.612 C 259.750 23.228,260.740 22.723,261.400 22.489 C 262.848 21.976,279.087 21.954,282.820 22.460 M120.000 149.483 C 118.350 149.797,116.372 150.177,115.604 150.327 C 114.797 150.485,114.157 150.869,114.087 151.239 C 113.867 152.394,122.298 161.005,127.446 164.883 C 128.961 166.024,131.831 168.317,133.825 169.979 C 135.818 171.640,142.035 176.633,147.640 181.074 C 159.031 190.101,159.091 190.156,159.444 191.918 C 159.997 194.686,155.994 196.943,147.969 198.388 C 145.536 198.826,142.430 199.529,141.065 199.951 C 139.701 200.372,136.968 201.012,134.992 201.372 C 126.555 202.910,127.188 204.256,138.283 208.362 C 139.997 208.997,143.740 210.452,146.600 211.596 C 152.766 214.062,157.560 215.937,161.400 217.384 C 162.940 217.965,166.592 219.613,169.516 221.046 C 172.440 222.480,176.490 224.284,178.516 225.057 C 180.542 225.829,184.045 227.167,186.300 228.030 C 191.503 230.022,197.981 232.470,202.600 234.189 C 204.580 234.927,208.333 236.355,210.939 237.365 C 219.741 240.773,219.950 240.329,216.763 225.000 C 215.789 220.318,214.631 216.032,213.748 213.838 C 212.929 211.805,211.978 208.371,211.530 205.838 C 211.099 203.397,210.297 199.960,209.748 198.200 C 209.199 196.440,208.390 192.885,207.951 190.300 C 207.512 187.716,206.706 184.296,206.160 182.700 C 205.614 181.105,204.815 177.717,204.385 175.172 C 203.955 172.627,203.134 169.392,202.562 167.984 C 201.990 166.577,201.177 163.642,200.754 161.463 C 199.541 155.204,198.908 155.255,194.092 162.000 C 193.070 163.430,191.150 165.942,189.824 167.583 C 188.498 169.223,186.635 171.623,185.683 172.916 C 181.374 178.770,178.365 177.980,172.291 169.400 C 163.858 157.487,159.409 151.955,156.640 149.937 L 155.080 148.800 139.040 148.856 C 127.007 148.898,122.251 149.054,120.000 149.483 M272.913 258.431 C 276.659 259.682,283.382 263.625,296.400 272.204 C 309.896 281.098,314.111 283.154,321.406 284.401 C 335.241 286.766,345.732 283.636,355.535 274.217 C 362.978 267.066,364.000 267.283,364.000 276.016 C 364.000 282.562,363.500 285.184,361.770 287.698 C 361.016 288.794,360.400 290.011,360.400 290.405 C 360.400 291.788,354.368 299.293,352.200 300.607 C 351.540 301.007,350.513 301.736,349.917 302.227 C 348.286 303.571,341.271 307.001,339.000 307.564 C 337.900 307.837,336.445 308.403,335.767 308.821 C 335.089 309.240,333.379 309.871,331.967 310.225 C 330.555 310.578,328.733 311.299,327.918 311.827 C 327.104 312.355,325.181 313.135,323.646 313.560 C 322.112 313.986,320.078 314.785,319.128 315.337 C 318.178 315.889,316.680 316.469,315.800 316.625 C 314.920 316.782,313.196 317.412,311.968 318.026 C 310.740 318.640,308.651 319.424,307.325 319.768 C 306.000 320.111,304.124 320.830,303.157 321.364 C 302.191 321.899,300.333 322.643,299.029 323.017 C 297.725 323.392,295.875 324.114,294.919 324.623 C 293.962 325.131,292.149 325.758,290.890 326.015 C 289.630 326.273,288.330 326.713,288.000 326.993 C 287.017 327.829,285.128 328.652,283.000 329.171 C 281.900 329.440,280.100 330.171,279.000 330.797 C 277.900 331.422,276.280 332.057,275.400 332.207 C 274.520 332.357,272.771 333.003,271.514 333.642 C 270.256 334.280,268.185 335.046,266.910 335.343 C 265.636 335.641,263.605 336.428,262.397 337.094 C 261.189 337.759,259.300 338.517,258.200 338.778 C 257.100 339.039,255.458 339.685,254.551 340.213 C 253.644 340.741,252.024 341.364,250.951 341.596 C 249.878 341.828,248.189 342.451,247.199 342.980 C 246.208 343.510,244.091 344.304,242.495 344.747 C 240.898 345.189,239.072 345.921,238.438 346.373 C 237.803 346.825,236.139 347.487,234.742 347.843 C 233.344 348.200,231.480 348.902,230.600 349.405 C 229.720 349.907,227.928 350.622,226.617 350.994 C 225.306 351.366,223.409 352.089,222.400 352.600 C 221.391 353.111,219.538 353.828,218.282 354.193 C 217.026 354.558,215.234 355.282,214.299 355.802 C 213.365 356.321,211.700 356.965,210.600 357.232 C 209.500 357.499,207.340 358.299,205.800 359.011 C 204.260 359.722,202.305 360.428,201.456 360.579 C 200.607 360.729,198.747 361.471,197.323 362.226 C 195.899 362.982,194.324 363.600,193.823 363.600 C 193.322 363.600,191.925 364.127,190.719 364.771 C 189.512 365.414,187.462 366.248,186.163 366.622 C 184.863 366.997,182.810 367.795,181.600 368.397 C 180.390 368.998,178.700 369.618,177.844 369.774 C 176.989 369.930,175.099 370.656,173.644 371.388 C 172.190 372.121,170.370 372.845,169.600 372.997 C 168.830 373.150,167.086 373.793,165.724 374.426 C 164.362 375.059,162.382 375.791,161.324 376.052 C 160.266 376.314,158.499 377.032,157.397 377.647 C 156.295 378.263,154.407 378.979,153.199 379.237 C 151.992 379.496,150.464 380.117,149.802 380.617 C 145.568 383.818,124.177 383.536,120.415 380.229 C 120.077 379.932,119.195 379.560,118.455 379.403 C 117.715 379.245,116.455 378.530,115.655 377.813 C 114.855 377.096,113.620 376.213,112.912 375.850 C 112.203 375.488,111.452 374.871,111.243 374.480 C 111.033 374.089,110.410 373.526,109.857 373.231 C 109.305 372.935,108.643 372.186,108.386 371.566 C 108.129 370.946,107.472 370.146,106.926 369.788 C 106.380 369.431,105.692 368.560,105.397 367.854 C 105.102 367.148,104.217 365.614,103.430 364.445 C 102.644 363.276,102.000 362.014,102.000 361.641 C 102.000 361.268,101.372 359.981,100.604 358.781 C 99.836 357.582,99.090 355.904,98.945 355.053 C 98.801 354.202,98.061 352.583,97.302 351.454 C 94.867 347.836,94.809 344.024,97.167 342.647 C 98.808 341.688,101.088 341.653,112.000 342.422 C 146.472 344.851,154.815 341.217,168.667 317.739 C 179.894 298.710,185.840 292.570,195.142 290.400 C 205.847 287.902,216.753 297.440,222.536 314.356 C 224.091 318.905,226.968 319.420,237.600 317.054 C 240.130 316.490,244.000 315.753,246.200 315.415 C 259.829 313.323,259.534 313.730,258.100 298.994 C 256.016 277.574,258.980 260.950,265.380 258.163 C 267.170 257.383,270.087 257.487,272.913 258.431 " stroke="none" fill="#1b1a10" fill-rule="evenodd"></path><path id="path1" d="M263.800 24.788 C 263.140 24.956,261.547 25.658,260.259 26.347 C 258.972 27.036,257.648 27.600,257.316 27.600 C 256.539 27.600,252.800 29.311,252.800 29.666 C 252.800 29.815,252.215 30.058,251.500 30.207 C 250.785 30.355,248.940 31.067,247.400 31.789 C 245.860 32.510,243.658 33.320,242.507 33.588 C 241.356 33.857,239.690 34.601,238.804 35.243 C 237.918 35.885,236.250 36.606,235.097 36.846 C 233.943 37.086,232.190 37.783,231.200 38.395 C 230.210 39.007,228.410 39.728,227.200 39.996 C 225.990 40.265,224.345 40.905,223.545 41.418 C 222.745 41.931,221.035 42.656,219.745 43.029 C 218.455 43.401,216.680 44.208,215.800 44.820 C 214.920 45.433,213.390 46.061,212.400 46.215 C 210.544 46.503,208.391 47.416,207.948 48.102 C 207.809 48.317,206.198 48.926,204.368 49.456 C 202.538 49.986,200.762 50.666,200.421 50.968 C 200.079 51.269,198.540 51.938,197.000 52.455 C 195.460 52.972,193.597 53.796,192.860 54.287 C 192.123 54.777,190.863 55.302,190.060 55.452 C 188.210 55.798,185.995 56.706,185.134 57.471 C 184.768 57.796,183.173 58.395,181.590 58.802 C 180.008 59.210,178.327 59.887,177.856 60.308 C 177.385 60.728,175.797 61.388,174.328 61.773 C 172.858 62.159,171.063 62.911,170.338 63.446 C 169.168 64.309,167.372 64.982,165.037 65.431 C 164.616 65.512,163.625 66.006,162.836 66.527 C 162.046 67.048,160.410 67.704,159.200 67.984 C 157.990 68.263,156.177 69.010,155.172 69.642 C 154.166 70.274,152.726 70.907,151.972 71.049 C 151.217 71.191,149.395 71.903,147.922 72.632 C 146.449 73.360,144.304 74.235,143.155 74.576 C 142.007 74.917,140.773 75.463,140.413 75.788 C 140.053 76.114,138.276 76.810,136.464 77.334 C 134.653 77.859,132.772 78.637,132.285 79.062 C 131.386 79.848,129.659 80.519,127.290 81.001 C 126.570 81.148,125.490 81.681,124.890 82.185 C 124.286 82.693,122.729 83.318,121.400 83.586 C 120.080 83.852,118.345 84.515,117.545 85.058 C 116.745 85.601,114.970 86.385,113.600 86.800 C 112.229 87.215,110.443 87.995,109.629 88.533 C 108.815 89.072,107.081 89.731,105.775 90.000 C 104.469 90.268,102.303 91.097,100.962 91.843 C 99.620 92.590,98.180 93.203,97.762 93.207 C 97.343 93.211,96.010 93.766,94.800 94.440 C 93.590 95.114,91.520 96.008,90.200 96.426 C 88.880 96.844,87.235 97.535,86.545 97.960 C 85.855 98.385,84.145 99.045,82.745 99.426 C 81.345 99.808,79.660 100.515,79.000 100.999 C 78.340 101.483,76.810 102.108,75.600 102.389 C 74.390 102.670,72.860 103.295,72.200 103.779 C 70.801 104.805,70.157 105.074,67.251 105.845 C 66.069 106.159,64.629 106.740,64.051 107.138 C 63.473 107.535,61.781 108.252,60.291 108.730 C 58.801 109.209,56.911 110.042,56.091 110.583 C 55.271 111.123,53.790 111.688,52.800 111.839 C 51.810 111.989,50.301 112.492,49.448 112.956 C 48.594 113.420,47.334 114.106,46.648 114.481 C 45.961 114.855,45.080 115.170,44.689 115.181 C 44.297 115.191,42.921 115.733,41.631 116.385 C 40.340 117.036,38.772 117.662,38.147 117.775 C 36.605 118.055,34.818 118.790,33.535 119.672 C 32.950 120.075,31.330 120.758,29.935 121.190 C 27.307 122.005,23.878 123.934,21.800 125.768 C 21.140 126.351,20.060 127.162,19.400 127.570 C 17.457 128.771,13.042 134.875,11.898 137.943 C 11.435 139.184,10.750 140.650,10.377 141.200 C 9.211 142.920,8.818 145.915,9.023 151.517 C 9.305 159.230,9.735 160.721,14.422 170.220 C 15.730 172.872,16.800 175.221,16.800 175.440 C 16.800 175.660,17.790 177.761,18.999 180.110 C 20.209 182.458,22.292 186.769,23.628 189.690 C 24.964 192.610,27.826 198.600,29.989 203.000 C 32.151 207.400,34.053 211.450,34.214 212.000 C 34.376 212.550,35.914 215.790,37.632 219.200 C 39.350 222.610,41.558 227.200,42.538 229.400 C 43.518 231.600,45.518 235.807,46.983 238.748 C 48.448 241.689,50.010 245.067,50.454 246.253 C 51.156 248.129,53.190 252.270,56.124 257.800 C 57.443 260.286,58.390 261.175,61.269 262.630 C 62.737 263.372,65.437 265.003,67.269 266.254 C 69.101 267.506,72.040 269.510,73.800 270.707 C 75.560 271.904,78.023 273.402,79.272 274.034 C 80.522 274.666,83.852 276.510,86.672 278.132 C 122.669 298.827,132.121 298.755,160.248 277.571 C 180.001 262.694,192.336 258.799,206.962 262.820 C 214.524 264.899,222.900 267.683,225.156 268.868 C 228.614 270.683,228.986 270.425,229.623 265.765 C 230.969 255.919,236.969 243.082,243.170 236.779 C 253.681 226.096,267.303 225.560,289.400 234.960 C 290.720 235.522,292.023 235.985,292.295 235.991 C 292.568 235.996,294.278 236.608,296.095 237.352 C 313.840 244.611,324.390 238.641,329.586 218.400 C 330.179 216.090,331.048 213.175,331.518 211.923 C 332.838 208.401,333.243 203.587,333.155 192.442 C 333.101 185.625,333.227 181.725,333.531 180.796 C 334.268 178.547,335.146 170.807,334.801 169.605 C 334.629 169.004,334.287 168.136,334.042 167.678 C 333.796 167.219,333.255 164.899,332.839 162.522 C 332.423 160.145,331.706 157.175,331.246 155.922 C 330.785 154.669,330.137 151.960,329.806 149.901 C 329.470 147.812,328.744 145.205,328.164 144.003 C 327.044 141.680,327.019 141.594,326.626 138.600 C 326.309 136.186,325.834 134.304,324.606 130.600 C 324.095 129.060,323.560 126.810,323.417 125.600 C 323.273 124.390,322.536 121.540,321.778 119.267 C 321.020 116.994,320.392 114.564,320.382 113.867 C 320.373 113.170,320.096 111.880,319.767 111.000 C 319.438 110.120,319.094 109.130,319.003 108.800 C 318.912 108.470,318.470 107.030,318.022 105.600 C 317.573 104.170,317.205 102.421,317.203 101.714 C 317.201 101.007,316.958 99.657,316.662 98.714 C 315.406 94.718,314.649 92.161,314.553 91.600 C 314.497 91.270,314.338 90.190,314.200 89.200 C 313.892 86.997,313.143 84.701,312.602 84.306 C 312.381 84.144,312.326 84.009,312.480 84.006 C 312.633 84.003,312.478 83.327,312.134 82.504 C 311.791 81.682,311.435 80.287,311.343 79.404 C 311.089 76.941,310.350 73.446,309.991 73.000 C 309.813 72.780,309.644 72.420,309.615 72.200 C 309.586 71.980,309.223 70.630,308.807 69.200 C 308.392 67.770,307.934 65.538,307.790 64.239 C 307.645 62.941,306.995 60.549,306.344 58.924 C 305.516 56.856,305.093 54.983,304.935 52.685 C 304.753 50.031,304.449 48.882,303.355 46.700 C 302.610 45.214,302.000 43.792,302.000 43.539 C 302.000 42.021,295.258 33.200,294.097 33.200 C 293.900 33.200,293.317 32.750,292.800 32.200 C 292.283 31.650,291.616 31.200,291.318 31.200 C 291.019 31.200,290.680 30.953,290.564 30.650 C 290.340 30.066,287.080 28.541,285.265 28.170 C 284.971 28.110,284.431 27.805,284.065 27.492 C 281.650 25.429,268.283 23.645,263.800 24.788 M274.807 37.219 C 287.535 39.511,296.310 49.117,299.043 63.752 C 299.377 65.539,300.075 68.620,300.596 70.600 C 301.116 72.580,301.658 75.010,301.800 76.000 C 301.942 76.990,302.573 79.690,303.202 82.000 C 303.830 84.310,304.544 87.280,304.787 88.600 C 305.245 91.089,306.121 95.031,308.564 105.600 C 310.149 112.460,310.304 113.398,312.018 126.600 C 312.675 131.660,313.105 136.340,312.974 137.000 C 312.611 138.818,311.887 140.908,311.313 141.789 C 311.031 142.223,310.798 142.943,310.796 143.389 C 310.791 144.509,308.825 147.820,306.811 150.100 L 305.132 152.000 290.866 152.038 C 283.020 152.058,274.890 152.244,272.800 152.451 C 270.710 152.658,266.922 152.956,264.382 153.114 C 261.210 153.310,259.456 153.602,258.781 154.044 C 257.918 154.610,254.823 154.724,233.338 154.985 L 208.877 155.282 208.295 153.941 C 207.058 151.093,206.800 150.335,206.800 149.559 C 206.800 148.198,205.284 145.342,203.979 144.244 C 201.565 142.213,197.954 143.527,194.323 147.759 C 188.938 154.034,186.302 156.386,184.646 156.393 C 182.746 156.401,180.000 157.184,180.000 157.718 C 180.000 158.851,175.472 157.578,174.235 156.099 C 173.556 155.285,172.630 154.237,172.178 153.769 C 171.726 153.302,170.652 151.948,169.792 150.760 C 168.931 149.572,168.026 148.473,167.780 148.317 C 167.534 148.162,166.812 147.262,166.175 146.317 C 165.538 145.373,164.449 143.880,163.754 143.000 C 163.059 142.120,161.525 139.957,160.345 138.193 C 159.165 136.430,157.332 133.820,156.270 132.393 C 154.099 129.475,149.971 123.634,145.800 117.578 C 137.247 105.159,136.413 105.051,127.766 115.238 C 124.925 118.586,121.247 122.871,119.593 124.762 C 117.939 126.653,115.939 129.010,115.148 130.000 C 114.357 130.990,111.202 134.617,108.137 138.061 C 99.803 147.422,98.553 150.042,100.565 153.933 C 100.923 154.625,101.216 155.280,101.217 155.388 C 101.217 155.496,101.919 156.322,102.778 157.225 C 103.925 158.431,104.308 159.148,104.225 159.933 L 104.112 161.000 87.556 161.244 C 78.450 161.379,66.005 161.514,59.900 161.544 L 48.800 161.600 48.800 163.000 L 48.800 164.400 45.245 164.400 L 41.691 164.400 41.516 165.591 C 41.274 167.242,41.750 170.157,42.727 173.000 C 43.180 174.320,44.473 178.190,45.599 181.600 C 48.252 189.630,49.708 193.803,50.936 196.897 C 51.482 198.274,52.049 200.660,52.195 202.200 C 52.552 205.951,54.455 211.427,60.398 225.800 C 61.035 227.340,62.177 230.220,62.936 232.200 C 65.863 239.838,68.845 247.484,69.643 249.400 C 70.101 250.500,71.061 253.020,71.776 255.000 C 76.706 268.651,76.665 268.500,75.554 268.713 C 74.052 269.003,70.480 264.295,67.493 258.091 C 66.357 255.731,64.233 251.640,62.772 249.000 C 61.312 246.360,59.468 242.760,58.675 241.000 C 57.882 239.240,54.488 232.400,51.133 225.800 C 47.779 219.200,44.582 212.810,44.030 211.600 C 42.050 207.259,36.002 195.619,34.539 193.332 C 32.402 189.992,23.901 172.870,22.231 168.541 C 18.169 158.009,19.828 145.028,26.339 136.400 C 31.546 129.501,37.587 126.075,58.800 117.990 C 63.338 116.260,73.193 112.326,89.000 105.934 C 95.608 103.262,98.992 101.922,105.000 99.598 C 107.200 98.747,110.980 97.220,113.400 96.204 C 115.820 95.189,119.150 93.842,120.800 93.211 C 123.610 92.138,126.763 90.889,136.000 87.188 C 138.090 86.351,141.240 85.105,143.000 84.420 C 144.760 83.734,147.010 82.828,148.000 82.406 C 148.990 81.984,154.120 79.938,159.400 77.859 C 164.680 75.780,173.860 72.165,179.800 69.826 C 185.740 67.487,192.490 64.836,194.800 63.933 C 197.110 63.031,200.170 61.787,201.600 61.169 C 203.030 60.552,206.180 59.289,208.600 58.363 C 211.020 57.438,214.080 56.239,215.400 55.700 C 216.720 55.161,219.330 54.126,221.200 53.400 C 224.470 52.130,234.991 47.879,244.200 44.108 C 246.620 43.117,249.860 41.804,251.400 41.189 C 252.940 40.575,255.294 39.612,256.630 39.048 C 262.188 36.707,268.458 36.076,274.807 37.219 M138.959 111.128 C 139.583 111.680,152.793 131.359,162.099 145.600 C 163.321 147.470,164.762 149.630,165.301 150.400 C 166.815 152.562,174.540 164.404,175.607 166.200 C 179.833 173.307,180.795 172.896,189.188 160.400 C 198.738 146.184,202.017 144.353,203.835 152.222 C 204.188 153.750,204.915 156.800,205.451 159.000 C 205.988 161.200,206.857 165.250,207.382 168.000 C 209.090 176.932,210.814 185.294,212.001 190.400 C 212.639 193.150,213.360 196.570,213.602 198.000 C 214.230 201.713,217.009 213.363,218.611 219.000 C 219.362 221.640,220.242 225.870,220.567 228.400 C 220.892 230.930,221.438 233.788,221.779 234.750 C 224.076 241.224,219.719 244.366,212.600 241.371 C 210.259 240.387,206.304 238.874,199.000 236.169 C 195.251 234.781,191.120 233.214,184.000 230.479 C 181.690 229.591,178.090 228.211,176.000 227.411 C 173.910 226.611,170.130 225.045,167.600 223.932 C 165.070 222.819,161.020 221.146,158.600 220.214 C 156.180 219.283,151.770 217.568,148.800 216.404 C 145.830 215.240,140.880 213.305,137.800 212.105 C 134.720 210.905,130.648 209.311,128.750 208.562 C 126.853 207.813,125.171 207.200,125.012 207.200 C 124.334 207.200,122.314 205.427,121.975 204.534 C 120.942 201.817,123.747 199.715,129.600 198.821 C 131.250 198.569,134.040 197.930,135.800 197.400 C 137.560 196.870,140.641 196.157,142.646 195.815 C 148.358 194.842,153.200 192.971,153.200 191.737 C 153.200 190.838,151.058 188.913,145.013 184.381 C 124.506 169.005,105.055 153.899,104.212 152.696 C 102.333 150.013,103.077 148.120,108.690 141.315 C 110.828 138.722,114.203 134.592,116.189 132.138 C 135.470 108.313,135.620 108.176,138.959 111.128 M328.132 186.392 C 328.983 187.832,332.000 199.523,332.000 201.379 C 332.000 207.375,329.385 205.235,328.597 198.593 C 328.440 197.277,327.919 194.310,327.438 192.000 C 326.957 189.690,326.595 187.575,326.632 187.300 C 326.669 187.025,326.723 186.440,326.750 186.000 C 326.821 184.867,327.314 185.007,328.132 186.392 M265.757 261.729 C 264.268 262.982,262.125 267.505,261.633 270.435 C 260.844 275.130,260.288 284.915,260.551 289.487 C 260.700 292.079,260.980 297.260,261.173 301.000 C 261.367 304.740,261.653 308.483,261.810 309.317 C 262.688 313.986,259.910 316.184,251.600 317.393 C 249.290 317.730,245.496 318.454,243.169 319.003 C 240.841 319.552,236.971 320.264,234.569 320.585 C 232.166 320.906,229.230 321.356,228.044 321.584 C 223.748 322.414,221.894 321.191,220.179 316.400 C 211.759 292.872,198.884 286.600,185.280 299.397 C 182.312 302.190,177.600 308.027,176.399 310.400 C 166.182 330.584,156.479 340.659,143.400 344.665 C 140.908 345.428,126.937 345.656,107.459 345.252 C 97.152 345.038,97.255 344.827,102.476 355.400 C 107.914 366.414,110.541 369.573,119.001 375.278 C 125.327 379.543,138.045 381.277,143.676 378.641 C 144.725 378.150,149.871 376.395,150.800 376.211 C 150.910 376.189,151.369 375.966,151.820 375.715 C 153.017 375.047,156.915 373.600,157.517 373.600 C 157.801 373.600,159.151 373.078,160.517 372.441 C 161.883 371.803,163.810 371.068,164.800 370.808 C 165.790 370.547,167.410 369.878,168.400 369.320 C 169.390 368.762,171.010 368.076,172.000 367.794 C 174.915 366.964,181.581 364.422,184.600 362.990 C 186.141 362.260,188.301 361.445,189.400 361.181 C 190.500 360.917,192.135 360.283,193.032 359.773 C 193.930 359.263,195.550 358.627,196.632 358.360 C 197.715 358.092,199.950 357.292,201.600 356.581 C 203.250 355.870,205.050 355.156,205.600 354.993 C 206.150 354.831,207.860 354.110,209.400 353.392 C 210.940 352.673,212.830 351.954,213.600 351.794 C 214.370 351.633,215.720 351.138,216.600 350.692 C 217.480 350.246,219.640 349.390,221.400 348.791 C 224.460 347.748,227.451 346.580,231.800 344.729 C 232.900 344.260,235.240 343.383,237.000 342.779 C 238.760 342.174,241.126 341.212,242.258 340.640 C 243.390 340.068,244.560 339.597,244.858 339.594 C 245.564 339.586,247.656 338.791,250.400 337.488 C 251.610 336.913,253.050 336.360,253.600 336.258 C 254.991 336.001,256.688 335.342,258.800 334.238 C 259.790 333.720,261.248 333.182,262.039 333.042 C 262.830 332.901,264.450 332.317,265.639 331.744 C 266.828 331.170,268.970 330.294,270.400 329.796 C 272.761 328.975,277.747 327.019,283.000 324.855 C 284.954 324.049,293.013 320.959,295.400 320.100 C 296.497 319.705,299.805 318.399,305.000 316.309 C 306.100 315.867,307.810 315.230,308.800 314.894 C 309.790 314.559,310.913 314.130,311.295 313.942 C 311.677 313.754,312.172 313.600,312.397 313.600 C 312.621 313.600,313.710 313.163,314.818 312.628 C 315.926 312.094,317.411 311.533,318.116 311.383 C 318.822 311.232,320.480 310.595,321.800 309.968 C 324.300 308.779,328.737 307.074,334.200 305.203 C 335.960 304.600,338.030 303.739,338.800 303.290 C 339.570 302.840,341.026 302.198,342.036 301.863 C 345.677 300.654,349.730 297.698,353.417 293.564 C 354.635 292.198,358.165 286.800,357.840 286.800 C 357.745 286.800,358.280 285.045,359.029 282.900 C 361.496 275.841,360.779 275.214,355.649 279.945 C 353.003 282.385,350.593 283.713,347.200 284.599 C 343.230 285.637,343.338 285.591,343.965 285.979 C 344.956 286.591,344.034 288.441,341.477 290.971 C 337.495 294.912,334.516 296.466,323.400 300.401 C 321.640 301.024,317.860 302.370,315.000 303.391 C 312.140 304.413,304.670 307.019,298.400 309.183 C 292.130 311.346,286.010 313.487,284.800 313.940 C 283.590 314.394,280.440 315.416,277.800 316.212 C 275.160 317.009,271.110 318.273,268.800 319.021 C 256.664 322.954,253.840 322.977,261.500 319.082 C 263.865 317.879,266.250 316.767,266.800 316.610 C 267.350 316.453,269.420 315.540,271.400 314.582 C 277.431 311.663,282.184 309.647,290.310 306.559 C 291.691 306.035,293.496 305.261,294.321 304.840 C 295.146 304.419,298.427 303.063,301.611 301.827 C 307.169 299.668,310.409 298.355,318.896 294.822 C 321.039 293.930,322.898 293.200,323.027 293.200 C 323.508 293.200,335.213 287.879,335.062 287.729 C 334.976 287.643,334.117 287.754,333.153 287.976 C 325.759 289.681,313.668 286.528,303.484 280.239 C 295.766 275.473,291.398 272.673,290.000 271.595 C 288.563 270.487,279.945 265.298,275.061 262.601 C 271.307 260.527,267.599 260.180,265.757 261.729 " stroke="none" fill="#edc621" fill-rule="evenodd"></path><path id="path2" d="M137.400 90.657 C 136.520 91.000,133.910 91.955,131.600 92.781 C 124.429 95.344,120.761 96.689,116.200 98.428 C 113.780 99.351,110.180 100.700,108.200 101.426 C 106.220 102.152,102.800 103.451,100.600 104.313 C 96.940 105.746,89.813 108.500,80.000 112.273 C 77.910 113.076,74.760 114.325,73.000 115.047 C 71.240 115.769,67.370 117.283,64.400 118.410 C 61.430 119.537,56.840 121.332,54.200 122.398 C 51.560 123.464,47.960 124.866,46.200 125.513 C 33.001 130.365,27.325 136.047,23.134 148.600 C 22.082 151.751,22.439 161.261,23.749 165.000 C 25.692 170.547,34.132 187.302,38.710 194.702 C 46.084 206.621,48.715 210.268,48.232 207.900 C 48.131 207.405,47.941 205.621,47.811 203.936 C 47.565 200.764,46.475 197.132,43.028 188.000 C 41.991 185.250,40.810 182.010,40.405 180.800 C 39.999 179.590,39.129 177.340,38.470 175.800 C 32.370 161.531,34.674 148.734,45.144 138.724 C 49.191 134.855,47.661 135.725,65.400 127.201 C 67.160 126.356,72.650 123.777,77.600 121.470 C 103.526 109.391,130.890 96.259,135.600 93.636 C 136.370 93.207,137.886 92.435,138.969 91.920 C 142.453 90.264,141.136 89.205,137.400 90.657 M336.200 289.138 C 333.286 290.774,329.516 293.373,328.638 294.351 L 327.876 295.200 329.438 295.206 C 332.344 295.217,340.400 290.223,340.400 288.411 C 340.400 287.635,338.198 288.016,336.200 289.138 " stroke="none" fill="#faefbc" fill-rule="evenodd"></path><path id="path3" d="M263.230 37.250 C 260.937 37.676,257.967 38.485,256.630 39.048 C 255.294 39.612,252.940 40.575,251.400 41.189 C 249.860 41.804,246.620 43.117,244.200 44.108 C 234.991 47.879,224.470 52.130,221.200 53.400 C 219.330 54.126,216.720 55.161,215.400 55.700 C 214.080 56.239,211.020 57.438,208.600 58.363 C 206.180 59.289,203.030 60.552,201.600 61.169 C 200.170 61.787,197.110 63.031,194.800 63.933 C 192.490 64.836,185.740 67.487,179.800 69.826 C 173.860 72.165,164.680 75.780,159.400 77.859 C 154.120 79.938,148.990 81.984,148.000 82.406 C 147.010 82.828,144.760 83.734,143.000 84.420 C 141.240 85.105,138.090 86.351,136.000 87.188 C 126.763 90.889,123.610 92.138,120.800 93.211 C 119.150 93.842,115.820 95.189,113.400 96.204 C 110.980 97.220,107.200 98.747,105.000 99.598 C 98.992 101.922,95.608 103.262,89.000 105.934 C 73.193 112.326,63.338 116.260,58.800 117.990 C 37.587 126.075,31.546 129.501,26.339 136.400 C 19.828 145.028,18.169 158.009,22.231 168.541 C 23.901 172.870,32.402 189.992,34.539 193.332 C 36.002 195.619,42.050 207.259,44.030 211.600 C 44.582 212.810,47.779 219.200,51.133 225.800 C 54.488 232.400,57.882 239.240,58.675 241.000 C 59.468 242.760,61.312 246.360,62.772 249.000 C 64.233 251.640,66.357 255.731,67.493 258.091 C 70.480 264.295,74.052 269.003,75.554 268.713 C 76.665 268.500,76.706 268.651,71.776 255.000 C 71.061 253.020,70.101 250.500,69.643 249.400 C 68.845 247.484,65.863 239.838,62.936 232.200 C 62.177 230.220,61.035 227.340,60.398 225.800 C 54.455 211.427,52.552 205.951,52.195 202.200 C 52.049 200.660,51.482 198.274,50.936 196.897 C 49.708 193.803,48.252 189.630,45.599 181.600 C 44.473 178.190,43.180 174.320,42.727 173.000 C 41.750 170.157,41.274 167.242,41.516 165.591 L 41.691 164.400 45.245 164.400 L 48.800 164.400 48.800 163.000 L 48.800 161.600 59.900 161.544 C 66.005 161.514,78.450 161.379,87.556 161.244 L 104.112 161.000 104.225 159.933 C 104.308 159.148,103.925 158.431,102.778 157.225 C 101.919 156.322,101.217 155.496,101.217 155.388 C 101.216 155.280,100.923 154.625,100.565 153.933 C 98.553 150.042,99.803 147.422,108.137 138.061 C 111.202 134.617,114.357 130.990,115.148 130.000 C 115.939 129.010,117.939 126.653,119.593 124.762 C 121.247 122.871,124.925 118.586,127.766 115.238 C 136.413 105.051,137.247 105.159,145.800 117.578 C 149.971 123.634,154.099 129.475,156.270 132.393 C 157.332 133.820,159.165 136.430,160.345 138.193 C 161.525 139.957,163.059 142.120,163.754 143.000 C 164.449 143.880,165.538 145.373,166.175 146.317 C 166.812 147.262,167.534 148.162,167.780 148.317 C 168.026 148.473,168.931 149.572,169.792 150.760 C 170.652 151.948,171.726 153.302,172.178 153.769 C 172.630 154.237,173.556 155.285,174.235 156.099 C 175.472 157.578,180.000 158.851,180.000 157.718 C 180.000 157.184,182.746 156.401,184.646 156.393 C 186.302 156.386,188.938 154.034,194.323 147.759 C 197.954 143.527,201.565 142.213,203.979 144.244 C 205.284 145.342,206.800 148.198,206.800 149.559 C 206.800 150.335,207.058 151.093,208.295 153.941 L 208.877 155.282 233.338 154.985 C 254.823 154.724,257.918 154.610,258.781 154.044 C 259.456 153.602,261.210 153.310,264.382 153.114 C 266.922 152.956,270.710 152.658,272.800 152.451 C 274.890 152.244,283.020 152.058,290.866 152.038 L 305.132 152.000 306.811 150.100 C 308.825 147.820,310.791 144.509,310.796 143.389 C 310.798 142.943,311.031 142.223,311.313 141.789 C 311.887 140.908,312.611 138.818,312.974 137.000 C 313.105 136.340,312.675 131.660,312.018 126.600 C 310.304 113.398,310.149 112.460,308.564 105.600 C 306.121 95.031,305.245 91.089,304.787 88.600 C 304.544 87.280,303.830 84.310,303.202 82.000 C 302.573 79.690,301.942 76.990,301.800 76.000 C 301.658 75.010,301.116 72.580,300.596 70.600 C 300.075 68.620,299.377 65.539,299.043 63.752 C 295.469 44.611,281.049 33.940,263.230 37.250 M141.103 90.492 C 141.012 90.763,140.052 91.405,138.969 91.920 C 137.886 92.435,136.370 93.207,135.600 93.636 C 130.890 96.259,103.526 109.391,77.600 121.470 C 72.650 123.777,67.160 126.356,65.400 127.201 C 47.661 135.725,49.191 134.855,45.144 138.724 C 34.674 148.734,32.370 161.531,38.470 175.800 C 39.129 177.340,39.999 179.590,40.405 180.800 C 40.810 182.010,41.991 185.250,43.028 188.000 C 46.475 197.132,47.565 200.764,47.811 203.936 C 47.941 205.621,48.131 207.405,48.232 207.900 C 48.715 210.268,46.084 206.621,38.710 194.702 C 34.132 187.302,25.692 170.547,23.749 165.000 C 22.439 161.261,22.082 151.751,23.134 148.600 C 27.325 136.047,33.001 130.365,46.200 125.513 C 47.960 124.866,51.560 123.464,54.200 122.398 C 56.840 121.332,61.430 119.537,64.400 118.410 C 67.370 117.283,71.240 115.769,73.000 115.047 C 74.760 114.325,77.910 113.076,80.000 112.273 C 89.813 108.500,96.940 105.746,100.600 104.313 C 102.800 103.451,106.220 102.152,108.200 101.426 C 110.180 100.700,113.780 99.351,116.200 98.428 C 120.761 96.689,124.429 95.344,131.600 92.781 C 133.910 91.955,136.520 91.000,137.400 90.657 C 139.371 89.891,141.332 89.803,141.103 90.492 M326.750 186.000 C 326.723 186.440,326.669 187.025,326.632 187.300 C 326.595 187.575,326.957 189.690,327.438 192.000 C 327.919 194.310,328.440 197.277,328.597 198.593 C 329.385 205.235,332.000 207.375,332.000 201.379 C 332.000 196.732,326.996 182.072,326.750 186.000 M339.509 286.222 C 338.249 286.527,336.359 287.212,335.309 287.743 C 333.013 288.905,323.340 293.200,323.019 293.200 C 322.895 293.200,321.039 293.930,318.896 294.822 C 310.409 298.355,307.169 299.668,301.611 301.827 C 298.427 303.063,295.146 304.419,294.321 304.840 C 293.496 305.261,291.691 306.035,290.310 306.559 C 282.184 309.647,277.431 311.663,271.400 314.582 C 269.420 315.540,267.350 316.453,266.800 316.610 C 266.250 316.767,263.865 317.879,261.500 319.082 C 253.840 322.977,256.664 322.954,268.800 319.021 C 271.110 318.273,275.160 317.009,277.800 316.212 C 280.440 315.416,283.590 314.394,284.800 313.940 C 286.010 313.487,292.130 311.346,298.400 309.183 C 304.670 307.019,312.140 304.413,315.000 303.391 C 317.860 302.370,321.640 301.024,323.400 300.401 C 334.516 296.466,337.495 294.912,341.477 290.971 C 345.993 286.502,345.296 284.819,339.509 286.222 M340.400 288.411 C 340.400 290.223,332.344 295.217,329.438 295.206 L 327.876 295.200 328.638 294.351 C 329.516 293.373,333.286 290.774,336.200 289.138 C 338.198 288.016,340.400 287.635,340.400 288.411 " stroke="none" fill="#f3de6b" fill-rule="evenodd"></path><path id="path4" d="M261.400 22.489 C 260.740 22.723,259.750 23.228,259.200 23.612 C 258.650 23.996,256.782 24.799,255.048 25.397 C 253.314 25.995,250.933 27.013,249.757 27.658 C 248.580 28.304,247.569 28.810,247.509 28.783 C 247.191 28.641,244.891 29.394,244.204 29.865 C 243.766 30.165,241.921 30.864,240.104 31.418 C 238.287 31.972,236.800 32.565,236.800 32.736 C 236.800 33.025,233.894 34.478,233.000 34.637 C 231.297 34.938,229.200 35.699,229.200 36.015 C 229.200 36.227,228.851 36.400,228.424 36.400 C 227.997 36.400,227.537 36.578,227.403 36.795 C 227.269 37.012,225.909 37.569,224.380 38.034 C 222.851 38.498,221.600 39.035,221.600 39.227 C 221.600 39.420,220.295 39.966,218.700 40.442 C 217.105 40.917,214.881 41.802,213.758 42.408 C 212.634 43.014,210.669 43.814,209.391 44.185 C 208.112 44.557,206.511 45.280,205.833 45.793 C 205.155 46.305,203.341 47.038,201.802 47.420 C 200.263 47.803,198.103 48.594,197.002 49.179 C 195.901 49.763,194.190 50.494,193.200 50.804 C 192.210 51.113,191.310 51.473,191.200 51.604 C 190.911 51.947,188.455 53.024,186.636 53.605 C 185.776 53.880,184.066 54.600,182.836 55.205 C 181.606 55.811,179.970 56.438,179.200 56.598 C 178.430 56.759,176.894 57.382,175.786 57.984 C 174.678 58.586,172.788 59.396,171.586 59.783 C 170.384 60.170,168.753 60.923,167.963 61.455 C 167.172 61.987,166.182 62.488,165.763 62.570 C 163.900 62.931,160.395 64.084,160.200 64.400 C 160.082 64.591,158.954 65.040,157.693 65.398 C 156.432 65.756,154.388 66.665,153.150 67.418 C 151.913 68.171,149.933 68.990,148.750 69.238 C 147.568 69.487,146.330 69.919,146.000 70.198 C 145.670 70.477,144.950 70.839,144.400 71.002 C 143.850 71.165,143.220 71.432,143.000 71.597 C 142.780 71.761,141.880 72.113,141.000 72.378 C 140.120 72.643,138.551 73.305,137.514 73.848 C 136.476 74.391,134.690 75.114,133.543 75.454 C 132.397 75.794,130.531 76.597,129.397 77.237 C 128.263 77.876,127.035 78.400,126.668 78.400 C 126.301 78.400,124.402 79.120,122.448 80.000 C 120.493 80.880,118.625 81.600,118.296 81.600 C 117.605 81.600,114.697 82.761,114.400 83.156 C 114.290 83.302,113.390 83.751,112.400 84.153 C 111.410 84.555,109.335 85.479,107.789 86.207 C 106.243 86.935,104.263 87.657,103.389 87.813 C 102.515 87.968,100.810 88.655,99.600 89.338 C 98.390 90.021,96.977 90.639,96.460 90.709 C 95.943 90.780,93.783 91.616,91.660 92.566 C 89.537 93.517,87.350 94.430,86.800 94.595 C 86.250 94.760,84.900 95.383,83.800 95.979 C 82.700 96.575,81.260 97.195,80.600 97.356 C 79.940 97.518,78.273 98.194,76.895 98.860 C 75.518 99.526,73.841 100.158,73.168 100.264 C 72.496 100.370,71.013 100.965,69.873 101.587 C 68.733 102.209,66.590 103.089,65.111 103.543 C 63.632 103.996,62.012 104.635,61.511 104.963 C 61.010 105.291,59.266 106.011,57.634 106.562 C 56.003 107.114,54.563 107.713,54.434 107.893 C 54.094 108.371,51.197 109.554,49.805 109.784 C 48.255 110.040,46.400 110.813,46.400 111.203 C 46.400 111.539,43.974 112.771,42.885 112.988 C 40.940 113.376,39.626 113.823,37.942 114.668 C 36.920 115.180,35.819 115.600,35.495 115.600 C 35.171 115.600,33.667 116.244,32.153 117.032 C 30.639 117.820,28.549 118.725,27.509 119.045 C 25.571 119.640,21.385 122.212,19.600 123.904 C 19.050 124.426,18.136 125.099,17.570 125.400 C 16.262 126.096,13.679 128.940,13.192 130.221 C 12.987 130.759,12.635 131.200,12.410 131.200 C 12.184 131.200,12.000 131.448,12.000 131.751 C 12.000 132.054,11.753 132.507,11.452 132.757 C 10.961 133.165,10.387 134.259,7.759 139.800 C 5.694 144.153,7.115 165.648,9.683 168.925 C 10.341 169.764,11.047 171.060,11.252 171.805 C 11.458 172.549,12.250 174.086,13.013 175.219 C 13.776 176.353,14.400 177.674,14.400 178.156 C 14.400 179.271,15.813 182.063,16.600 182.504 C 16.930 182.689,17.201 183.056,17.202 183.320 C 17.208 184.614,18.159 186.956,19.146 188.111 C 19.753 188.820,20.462 190.137,20.722 191.039 C 20.982 191.940,21.826 193.888,22.598 195.368 C 23.369 196.847,24.000 198.341,24.000 198.688 C 24.000 199.034,24.607 200.236,25.350 201.359 C 26.092 202.481,26.828 203.989,26.984 204.710 C 27.140 205.430,27.676 206.510,28.174 207.110 C 29.355 208.529,29.831 209.502,30.138 211.124 C 30.277 211.852,30.992 213.475,31.728 214.732 C 32.465 215.988,33.186 217.491,33.332 218.070 C 33.477 218.650,34.227 220.082,34.998 221.253 C 35.769 222.424,36.400 223.664,36.400 224.009 C 36.400 224.355,37.028 225.619,37.796 226.819 C 38.564 228.018,39.308 229.680,39.449 230.511 C 39.590 231.343,40.297 233.005,41.020 234.205 C 41.742 235.405,42.454 236.936,42.602 237.609 C 42.750 238.281,43.465 239.610,44.192 240.562 C 44.918 241.514,45.633 242.840,45.780 243.509 C 45.927 244.178,46.667 245.754,47.424 247.011 C 48.181 248.268,48.800 249.641,48.800 250.061 C 48.800 251.226,49.789 253.310,50.745 254.162 C 51.215 254.581,51.601 255.121,51.602 255.362 C 51.609 256.644,52.540 258.827,53.515 259.848 C 54.125 260.486,54.847 261.548,55.120 262.207 C 55.659 263.508,57.936 265.083,60.800 266.136 C 61.790 266.500,66.060 269.003,70.288 271.699 C 103.748 293.028,122.698 299.874,136.000 295.438 C 143.363 292.983,148.772 289.810,160.600 281.007 C 183.473 263.986,194.290 261.287,213.467 267.815 C 215.704 268.577,217.759 269.200,218.034 269.200 C 218.308 269.200,220.686 270.200,223.317 271.422 C 230.135 274.589,231.102 274.215,232.185 268.000 C 237.870 235.365,256.738 224.038,284.800 236.417 C 306.774 246.110,318.148 245.742,325.506 235.099 C 327.669 231.969,331.273 224.470,331.801 222.000 C 331.965 221.230,332.598 218.976,333.207 216.990 C 334.908 211.445,336.412 200.564,337.188 188.200 C 337.381 185.120,337.865 180.440,338.263 177.800 C 339.471 169.778,339.015 163.288,336.994 159.782 C 336.331 158.631,335.934 157.017,335.619 154.192 C 335.317 151.476,334.848 149.522,334.138 148.010 C 333.494 146.639,332.901 144.335,332.577 141.941 C 332.230 139.375,331.698 137.378,330.991 135.982 C 330.262 134.544,329.759 132.608,329.394 129.841 C 329.029 127.071,328.474 124.939,327.631 123.063 C 326.954 121.557,326.397 119.667,326.394 118.863 C 326.386 116.864,325.366 112.694,324.443 110.884 C 324.025 110.065,323.476 107.698,323.224 105.626 C 322.924 103.152,322.367 100.948,321.605 99.210 C 320.873 97.544,320.280 95.249,320.002 93.016 C 319.708 90.646,319.176 88.661,318.402 87.035 C 317.566 85.280,317.128 83.542,316.831 80.810 C 316.536 78.089,316.125 76.453,315.372 75.010 C 314.641 73.608,314.157 71.738,313.772 68.824 C 313.403 66.033,312.876 63.945,312.181 62.526 C 311.516 61.167,310.939 58.954,310.577 56.372 C 310.266 54.155,309.618 51.499,309.138 50.471 C 308.658 49.442,308.050 47.430,307.787 46.000 C 307.486 44.363,306.855 42.728,306.083 41.585 C 305.409 40.586,304.741 39.303,304.598 38.733 C 304.455 38.163,303.722 37.099,302.969 36.370 C 302.216 35.640,301.596 34.853,301.590 34.622 C 301.576 34.038,297.861 30.000,297.338 30.000 C 297.104 30.000,296.302 29.365,295.556 28.588 C 293.565 26.516,286.045 22.897,282.820 22.460 C 279.087 21.954,262.848 21.976,261.400 22.489 M274.878 24.993 C 279.853 25.575,282.741 26.361,284.065 27.492 C 284.431 27.805,284.971 28.110,285.265 28.170 C 287.080 28.541,290.340 30.066,290.564 30.650 C 290.680 30.953,291.019 31.200,291.318 31.200 C 291.616 31.200,292.283 31.650,292.800 32.200 C 293.317 32.750,293.900 33.200,294.097 33.200 C 295.258 33.200,302.000 42.021,302.000 43.539 C 302.000 43.792,302.610 45.214,303.355 46.700 C 304.449 48.882,304.753 50.031,304.935 52.685 C 305.093 54.983,305.516 56.856,306.344 58.924 C 306.995 60.549,307.645 62.941,307.790 64.239 C 307.934 65.538,308.392 67.770,308.807 69.200 C 309.223 70.630,309.586 71.980,309.615 72.200 C 309.644 72.420,309.813 72.780,309.991 73.000 C 310.350 73.446,311.089 76.941,311.343 79.404 C 311.435 80.287,311.791 81.682,312.134 82.504 C 312.478 83.327,312.633 84.003,312.480 84.006 C 312.326 84.009,312.381 84.144,312.602 84.306 C 313.143 84.701,313.892 86.997,314.200 89.200 C 314.338 90.190,314.497 91.270,314.553 91.600 C 314.649 92.161,315.406 94.718,316.662 98.714 C 316.958 99.657,317.201 101.007,317.203 101.714 C 317.205 102.421,317.573 104.170,318.022 105.600 C 318.470 107.030,318.912 108.470,319.003 108.800 C 319.094 109.130,319.438 110.120,319.767 111.000 C 320.096 111.880,320.373 113.170,320.382 113.867 C 320.392 114.564,321.020 116.994,321.778 119.267 C 322.536 121.540,323.273 124.390,323.417 125.600 C 323.560 126.810,324.095 129.060,324.606 130.600 C 325.834 134.304,326.309 136.186,326.626 138.600 C 327.019 141.594,327.044 141.680,328.164 144.003 C 328.744 145.205,329.470 147.812,329.806 149.901 C 330.137 151.960,330.785 154.669,331.246 155.922 C 331.706 157.175,332.423 160.145,332.839 162.522 C 333.255 164.899,333.796 167.219,334.042 167.678 C 334.287 168.136,334.629 169.004,334.801 169.605 C 335.146 170.807,334.268 178.547,333.531 180.796 C 333.227 181.725,333.101 185.625,333.155 192.442 C 333.243 203.587,332.838 208.401,331.518 211.923 C 331.048 213.175,330.179 216.090,329.586 218.400 C 324.390 238.641,313.840 244.611,296.095 237.352 C 294.278 236.608,292.568 235.996,292.295 235.991 C 292.023 235.985,290.720 235.522,289.400 234.960 C 270.697 227.003,257.999 226.235,248.326 232.476 C 239.652 238.072,231.401 252.758,229.623 265.765 C 228.986 270.425,228.614 270.683,225.156 268.868 C 222.900 267.683,214.524 264.899,206.962 262.820 C 192.336 258.799,180.001 262.694,160.248 277.571 C 132.121 298.755,122.669 298.827,86.672 278.132 C 83.852 276.510,80.522 274.666,79.272 274.034 C 78.023 273.402,75.560 271.904,73.800 270.707 C 72.040 269.510,69.101 267.506,67.269 266.254 C 65.437 265.003,62.737 263.372,61.269 262.630 C 58.390 261.175,57.443 260.286,56.124 257.800 C 53.190 252.270,51.156 248.129,50.454 246.253 C 50.010 245.067,48.448 241.689,46.983 238.748 C 45.518 235.807,43.518 231.600,42.538 229.400 C 41.558 227.200,39.350 222.610,37.632 219.200 C 35.914 215.790,34.376 212.550,34.214 212.000 C 34.053 211.450,32.151 207.400,29.989 203.000 C 27.826 198.600,24.964 192.610,23.628 189.690 C 22.292 186.769,20.209 182.458,18.999 180.110 C 17.790 177.761,16.800 175.660,16.800 175.440 C 16.800 175.221,15.730 172.872,14.422 170.220 C 9.735 160.721,9.305 159.230,9.023 151.517 C 8.818 145.915,9.211 142.920,10.377 141.200 C 10.750 140.650,11.435 139.184,11.898 137.943 C 13.042 134.875,17.457 128.771,19.400 127.570 C 20.060 127.162,21.140 126.351,21.800 125.768 C 23.878 123.934,27.307 122.005,29.935 121.190 C 31.330 120.758,32.950 120.075,33.535 119.672 C 34.818 118.790,36.605 118.055,38.147 117.775 C 38.772 117.662,40.340 117.036,41.631 116.385 C 42.921 115.733,44.297 115.191,44.689 115.181 C 45.080 115.170,45.961 114.855,46.648 114.481 C 47.334 114.106,48.594 113.420,49.448 112.956 C 50.301 112.492,51.810 111.989,52.800 111.839 C 53.790 111.688,55.271 111.123,56.091 110.583 C 56.911 110.042,58.801 109.209,60.291 108.730 C 61.781 108.252,63.473 107.535,64.051 107.138 C 64.629 106.740,66.069 106.159,67.251 105.845 C 70.157 105.074,70.801 104.805,72.200 103.779 C 72.860 103.295,74.390 102.670,75.600 102.389 C 76.810 102.108,78.340 101.483,79.000 100.999 C 79.660 100.515,81.345 99.808,82.745 99.426 C 84.145 99.045,85.855 98.385,86.545 97.960 C 87.235 97.535,88.880 96.844,90.200 96.426 C 91.520 96.008,93.590 95.114,94.800 94.440 C 96.010 93.766,97.343 93.211,97.762 93.207 C 98.180 93.203,99.620 92.590,100.962 91.843 C 102.303 91.097,104.469 90.268,105.775 90.000 C 107.081 89.731,108.815 89.072,109.629 88.533 C 110.443 87.995,112.229 87.215,113.600 86.800 C 114.970 86.385,116.745 85.601,117.545 85.058 C 118.345 84.515,120.080 83.852,121.400 83.586 C 122.729 83.318,124.286 82.693,124.890 82.185 C 125.490 81.681,126.570 81.148,127.290 81.001 C 129.659 80.519,131.386 79.848,132.285 79.062 C 132.772 78.637,134.653 77.859,136.464 77.334 C 138.276 76.810,140.053 76.114,140.413 75.788 C 140.773 75.463,142.007 74.917,143.155 74.576 C 144.304 74.235,146.449 73.360,147.922 72.632 C 149.395 71.903,151.217 71.191,151.972 71.049 C 152.726 70.907,154.166 70.274,155.172 69.642 C 156.177 69.010,157.990 68.263,159.200 67.984 C 160.410 67.704,162.046 67.048,162.836 66.527 C 163.625 66.006,164.616 65.512,165.037 65.431 C 167.372 64.982,169.168 64.309,170.338 63.446 C 171.063 62.911,172.858 62.159,174.328 61.773 C 175.797 61.388,177.385 60.728,177.856 60.308 C 178.327 59.887,180.008 59.210,181.590 58.802 C 183.173 58.395,184.768 57.796,185.134 57.471 C 185.995 56.706,188.210 55.798,190.060 55.452 C 190.863 55.302,192.123 54.777,192.860 54.287 C 193.597 53.796,195.460 52.972,197.000 52.455 C 198.540 51.938,200.079 51.269,200.421 50.968 C 200.762 50.666,202.538 49.986,204.368 49.456 C 206.198 48.926,207.809 48.317,207.948 48.102 C 208.391 47.416,210.544 46.503,212.400 46.215 C 213.390 46.061,214.920 45.433,215.800 44.820 C 216.680 44.208,218.455 43.401,219.745 43.029 C 221.035 42.656,222.745 41.931,223.545 41.418 C 224.345 40.905,225.990 40.265,227.200 39.996 C 228.410 39.728,230.210 39.007,231.200 38.395 C 232.190 37.783,233.943 37.086,235.097 36.846 C 236.250 36.606,237.918 35.885,238.804 35.243 C 239.690 34.601,241.356 33.857,242.507 33.588 C 243.658 33.320,245.860 32.510,247.400 31.789 C 248.940 31.067,250.785 30.355,251.500 30.207 C 252.215 30.058,252.800 29.815,252.800 29.666 C 252.800 29.311,256.539 27.600,257.316 27.600 C 257.648 27.600,258.972 27.036,260.259 26.347 C 264.236 24.218,266.475 24.010,274.878 24.993 M134.972 110.184 C 133.873 110.647,128.496 116.931,116.189 132.138 C 114.203 134.592,110.828 138.722,108.690 141.315 C 103.077 148.120,102.333 150.013,104.212 152.696 C 105.055 153.899,124.506 169.005,145.013 184.381 C 151.058 188.913,153.200 190.838,153.200 191.737 C 153.200 192.971,148.358 194.842,142.646 195.815 C 140.641 196.157,137.560 196.870,135.800 197.400 C 134.040 197.930,131.250 198.569,129.600 198.821 C 123.747 199.715,120.942 201.817,121.975 204.534 C 122.314 205.427,124.334 207.200,125.012 207.200 C 125.171 207.200,126.853 207.813,128.750 208.562 C 130.648 209.311,134.720 210.905,137.800 212.105 C 140.880 213.305,145.830 215.240,148.800 216.404 C 151.770 217.568,156.180 219.283,158.600 220.214 C 161.020 221.146,165.070 222.819,167.600 223.932 C 170.130 225.045,173.910 226.611,176.000 227.411 C 178.090 228.211,181.690 229.591,184.000 230.479 C 191.120 233.214,195.251 234.781,199.000 236.169 C 206.304 238.874,210.259 240.387,212.600 241.371 C 219.719 244.366,224.076 241.224,221.779 234.750 C 221.438 233.788,220.892 230.930,220.567 228.400 C 220.242 225.870,219.362 221.640,218.611 219.000 C 217.009 213.363,214.230 201.713,213.602 198.000 C 213.360 196.570,212.639 193.150,212.001 190.400 C 210.814 185.294,209.090 176.932,207.382 168.000 C 206.857 165.250,205.988 161.200,205.451 159.000 C 204.915 156.800,204.188 153.750,203.835 152.222 C 202.017 144.353,198.738 146.184,189.188 160.400 C 180.795 172.896,179.833 173.307,175.607 166.200 C 174.540 164.404,166.815 152.562,165.301 150.400 C 164.762 149.630,163.321 147.470,162.099 145.600 C 138.988 110.232,137.982 108.919,134.972 110.184 M156.640 149.937 C 159.409 151.955,163.858 157.487,172.291 169.400 C 178.365 177.980,181.374 178.770,185.683 172.916 C 186.635 171.623,188.498 169.223,189.824 167.583 C 191.150 165.942,193.070 163.430,194.092 162.000 C 198.908 155.255,199.541 155.204,200.754 161.463 C 201.177 163.642,201.990 166.577,202.562 167.984 C 203.134 169.392,203.955 172.627,204.385 175.172 C 204.815 177.717,205.614 181.105,206.160 182.700 C 206.706 184.296,207.512 187.716,207.951 190.300 C 208.390 192.885,209.199 196.440,209.748 198.200 C 210.297 199.960,211.099 203.397,211.530 205.838 C 211.978 208.371,212.929 211.805,213.748 213.838 C 214.631 216.032,215.789 220.318,216.763 225.000 C 219.950 240.329,219.741 240.773,210.939 237.365 C 208.333 236.355,204.580 234.927,202.600 234.189 C 197.981 232.470,191.503 230.022,186.300 228.030 C 184.045 227.167,180.542 225.829,178.516 225.057 C 176.490 224.284,172.440 222.480,169.516 221.046 C 166.592 219.613,162.940 217.965,161.400 217.384 C 157.560 215.937,152.766 214.062,146.600 211.596 C 143.740 210.452,139.997 208.997,138.283 208.362 C 127.188 204.256,126.555 202.910,134.992 201.372 C 136.968 201.012,139.701 200.372,141.065 199.951 C 142.430 199.529,145.536 198.826,147.969 198.388 C 155.994 196.943,159.997 194.686,159.444 191.918 C 159.091 190.156,159.031 190.101,147.640 181.074 C 142.035 176.633,135.818 171.640,133.825 169.979 C 131.831 168.317,128.961 166.024,127.446 164.883 C 122.298 161.005,113.867 152.394,114.087 151.239 C 114.157 150.869,114.797 150.485,115.604 150.327 C 122.650 148.949,123.259 148.911,139.040 148.856 L 155.080 148.800 156.640 149.937 M265.380 258.163 C 258.980 260.950,256.016 277.574,258.100 298.994 C 259.534 313.730,259.829 313.323,246.200 315.415 C 244.000 315.753,240.130 316.490,237.600 317.054 C 226.968 319.420,224.091 318.905,222.536 314.356 C 216.753 297.440,205.847 287.902,195.142 290.400 C 185.840 292.570,179.894 298.710,168.667 317.739 C 154.815 341.217,146.472 344.851,112.000 342.422 C 101.088 341.653,98.808 341.688,97.167 342.647 C 94.809 344.024,94.867 347.836,97.302 351.454 C 98.061 352.583,98.801 354.202,98.945 355.053 C 99.090 355.904,99.836 357.582,100.604 358.781 C 101.372 359.981,102.000 361.268,102.000 361.641 C 102.000 362.014,102.644 363.276,103.430 364.445 C 104.217 365.614,105.102 367.148,105.397 367.854 C 105.692 368.560,106.380 369.431,106.926 369.788 C 107.472 370.146,108.129 370.946,108.386 371.566 C 108.643 372.186,109.305 372.935,109.857 373.231 C 110.410 373.526,111.033 374.089,111.243 374.480 C 111.452 374.871,112.203 375.488,112.912 375.850 C 113.620 376.213,114.855 377.096,115.655 377.813 C 116.455 378.530,117.715 379.245,118.455 379.403 C 119.195 379.560,120.077 379.932,120.415 380.229 C 124.177 383.536,145.568 383.818,149.802 380.617 C 150.464 380.117,151.992 379.496,153.199 379.237 C 154.407 378.979,156.295 378.263,157.397 377.647 C 158.499 377.032,160.266 376.314,161.324 376.052 C 162.382 375.791,164.362 375.059,165.724 374.426 C 167.086 373.793,168.830 373.150,169.600 372.997 C 170.370 372.845,172.190 372.121,173.644 371.388 C 175.099 370.656,176.989 369.930,177.844 369.774 C 178.700 369.618,180.390 368.998,181.600 368.397 C 182.810 367.795,184.863 366.997,186.163 366.622 C 187.462 366.248,189.512 365.414,190.719 364.771 C 191.925 364.127,193.322 363.600,193.823 363.600 C 194.324 363.600,195.899 362.982,197.323 362.226 C 198.747 361.471,200.607 360.729,201.456 360.579 C 202.305 360.428,204.260 359.722,205.800 359.011 C 207.340 358.299,209.500 357.499,210.600 357.232 C 211.700 356.965,213.365 356.321,214.299 355.802 C 215.234 355.282,217.026 354.558,218.282 354.193 C 219.538 353.828,221.391 353.111,222.400 352.600 C 223.409 352.089,225.306 351.366,226.617 350.994 C 227.928 350.622,229.720 349.907,230.600 349.405 C 231.480 348.902,233.344 348.200,234.742 347.843 C 236.139 347.487,237.803 346.825,238.438 346.373 C 239.072 345.921,240.898 345.189,242.495 344.747 C 244.091 344.304,246.208 343.510,247.199 342.980 C 248.189 342.451,249.878 341.828,250.951 341.596 C 252.024 341.364,253.644 340.741,254.551 340.213 C 255.458 339.685,257.100 339.039,258.200 338.778 C 259.300 338.517,261.189 337.759,262.397 337.094 C 263.605 336.428,265.636 335.641,266.910 335.343 C 268.185 335.046,270.256 334.280,271.514 333.642 C 272.771 333.003,274.520 332.357,275.400 332.207 C 276.280 332.057,277.900 331.422,279.000 330.797 C 280.100 330.171,281.900 329.440,283.000 329.171 C 285.128 328.652,287.017 327.829,288.000 326.993 C 288.330 326.713,289.630 326.273,290.890 326.015 C 292.149 325.758,293.962 325.131,294.919 324.623 C 295.875 324.114,297.725 323.392,299.029 323.017 C 300.333 322.643,302.191 321.899,303.157 321.364 C 304.124 320.830,306.000 320.111,307.325 319.768 C 308.651 319.424,310.740 318.640,311.968 318.026 C 313.196 317.412,314.920 316.782,315.800 316.625 C 316.680 316.469,318.178 315.889,319.128 315.337 C 320.078 314.785,322.112 313.986,323.646 313.560 C 325.181 313.135,327.104 312.355,327.918 311.827 C 328.733 311.299,330.555 310.578,331.967 310.225 C 333.379 309.871,335.089 309.240,335.767 308.821 C 336.445 308.403,337.900 307.837,339.000 307.564 C 341.271 307.001,348.286 303.571,349.917 302.227 C 350.513 301.736,351.540 301.007,352.200 300.607 C 354.368 299.293,360.400 291.788,360.400 290.405 C 360.400 290.011,361.016 288.794,361.770 287.698 C 363.500 285.184,364.000 282.562,364.000 276.016 C 364.000 267.283,362.978 267.066,355.535 274.217 C 345.732 283.636,335.241 286.766,321.406 284.401 C 314.111 283.154,309.896 281.098,296.400 272.204 C 275.816 258.639,270.162 256.080,265.380 258.163 M275.061 262.601 C 279.945 265.298,288.563 270.487,290.000 271.595 C 291.398 272.673,295.766 275.473,303.484 280.239 C 314.508 287.047,326.429 289.856,334.600 287.571 C 336.140 287.140,339.470 286.349,342.000 285.811 C 350.318 284.045,352.534 283.032,356.644 279.115 C 360.725 275.225,361.359 276.231,359.029 282.900 C 358.280 285.045,357.745 286.800,357.840 286.800 C 358.165 286.800,354.635 292.198,353.417 293.564 C 349.730 297.698,345.677 300.654,342.036 301.863 C 341.026 302.198,339.570 302.840,338.800 303.290 C 338.030 303.739,335.960 304.600,334.200 305.203 C 328.737 307.074,324.300 308.779,321.800 309.968 C 320.480 310.595,318.822 311.232,318.116 311.383 C 317.411 311.533,315.926 312.094,314.818 312.628 C 313.710 313.163,312.621 313.600,312.397 313.600 C 312.172 313.600,311.677 313.754,311.295 313.942 C 310.913 314.130,309.790 314.559,308.800 314.894 C 307.810 315.230,306.100 315.867,305.000 316.309 C 299.805 318.399,296.497 319.705,295.400 320.100 C 293.013 320.959,284.954 324.049,283.000 324.855 C 277.747 327.019,272.761 328.975,270.400 329.796 C 268.970 330.294,266.828 331.170,265.639 331.744 C 264.450 332.317,262.830 332.901,262.039 333.042 C 261.248 333.182,259.790 333.720,258.800 334.238 C 256.688 335.342,254.991 336.001,253.600 336.258 C 253.050 336.360,251.610 336.913,250.400 337.488 C 247.656 338.791,245.564 339.586,244.858 339.594 C 244.560 339.597,243.390 340.068,242.258 340.640 C 241.126 341.212,238.760 342.174,237.000 342.779 C 235.240 343.383,232.900 344.260,231.800 344.729 C 227.451 346.580,224.460 347.748,221.400 348.791 C 219.640 349.390,217.480 350.246,216.600 350.692 C 215.720 351.138,214.370 351.633,213.600 351.794 C 212.830 351.954,210.940 352.673,209.400 353.392 C 207.860 354.110,206.150 354.831,205.600 354.993 C 205.050 355.156,203.250 355.870,201.600 356.581 C 199.950 357.292,197.715 358.092,196.632 358.360 C 195.550 358.627,193.930 359.263,193.032 359.773 C 192.135 360.283,190.500 360.917,189.400 361.181 C 188.301 361.445,186.141 362.260,184.600 362.990 C 181.581 364.422,174.915 366.964,172.000 367.794 C 171.010 368.076,169.390 368.762,168.400 369.320 C 167.410 369.878,165.790 370.547,164.800 370.808 C 163.810 371.068,161.883 371.803,160.517 372.441 C 159.151 373.078,157.801 373.600,157.517 373.600 C 156.915 373.600,153.017 375.047,151.820 375.715 C 151.369 375.966,150.910 376.189,150.800 376.211 C 149.871 376.395,144.725 378.150,143.676 378.641 C 138.045 381.277,125.327 379.543,119.001 375.278 C 110.541 369.573,107.914 366.414,102.476 355.400 C 97.255 344.827,97.152 345.038,107.459 345.252 C 126.937 345.656,140.908 345.428,143.400 344.665 C 156.479 340.659,166.182 330.584,176.399 310.400 C 177.600 308.027,182.312 302.190,185.280 299.397 C 198.884 286.600,211.759 292.872,220.179 316.400 C 221.894 321.191,223.748 322.414,228.044 321.584 C 229.230 321.356,232.166 320.906,234.569 320.585 C 236.971 320.264,240.841 319.552,243.169 319.003 C 245.496 318.454,249.290 317.730,251.600 317.393 C 259.910 316.184,262.688 313.986,261.810 309.317 C 261.653 308.483,261.367 304.740,261.173 301.000 C 260.980 297.260,260.700 292.079,260.551 289.487 C 260.390 286.686,260.480 282.306,260.774 278.687 C 262.140 261.875,265.961 257.574,275.061 262.601 " stroke="none" fill="#a5861b" fill-rule="evenodd"></path></g></svg>