<?xml version="1.0" encoding="UTF-8"?>
<!DOCTYPE svg PUBLIC "-//W3C//DTD SVG 1.1//EN" "http://www.w3.org/Graphics/SVG/1.1/DTD/svg11.dtd">
<svg xmlns="http://www.w3.org/2000/svg" version="1.1" width="200px" height="200px" style="shape-rendering:geometricPrecision; text-rendering:geometricPrecision; image-rendering:optimizeQuality; fill-rule:evenodd; clip-rule:evenodd" xmlns:xlink="http://www.w3.org/1999/xlink">
<g><path style="opacity:0.966" fill="#000000" d="M 86.5,-0.5 C 95.1667,-0.5 103.833,-0.5 112.5,-0.5C 118.48,0.210138 124.314,1.8768 130,4.5C 130.499,9.1548 130.666,13.8215 130.5,18.5C 147.708,21.4614 163.708,27.4614 178.5,36.5C 183.029,90.7987 187.363,145.132 191.5,199.5C 181.5,199.5 171.5,199.5 161.5,199.5C 160.385,169.014 157.551,138.68 153,108.5C 151.644,107.62 150.144,107.286 148.5,107.5C 148.667,119.505 148.5,131.505 148,143.5C 141.543,144.905 135.043,146.238 128.5,147.5C 128.337,149.857 128.503,152.19 129,154.5C 135.274,152.14 141.774,150.807 148.5,150.5C 148.5,159.167 148.5,167.833 148.5,176.5C 140.292,179.959 131.959,183.125 123.5,186C 116.576,187.455 109.576,188.288 102.5,188.5C 102.5,129.833 102.5,71.1667 102.5,12.5C 107.536,12.4122 112.536,11.9122 117.5,11C 118.167,10.3333 118.833,9.66667 119.5,9C 118.284,7.26016 116.618,6.26016 114.5,6C 104.167,5.33333 93.8333,5.33333 83.5,6C 81.221,6.47285 79.221,7.47285 77.5,9C 78.3279,9.91471 79.3279,10.5814 80.5,11C 85.7926,11.977 91.1259,12.477 96.5,12.5C 96.5,71.1667 96.5,129.833 96.5,188.5C 80.262,187.541 64.9287,183.374 50.5,176C 49.5168,167.585 49.1834,159.085 49.5,150.5C 56.2258,150.807 62.7258,152.14 69,154.5C 69.4966,152.19 69.6633,149.857 69.5,147.5C 63.1429,146.328 56.8096,144.994 50.5,143.5C 49.5205,131.551 49.1872,119.551 49.5,107.5C 47.549,107.227 46.049,107.893 45,109.5C 40.4854,139.327 37.9854,169.327 37.5,199.5C 27.5,199.5 17.5,199.5 7.5,199.5C 11.3793,145.161 15.3793,90.8273 19.5,36.5C 34.5536,27.8146 50.5536,21.4813 67.5,17.5C 68.1924,12.952 68.8591,8.45204 69.5,4C 75.0309,1.46057 80.6975,-0.0394264 86.5,-0.5 Z"/></g>
</svg>
