<svg xmlns="http://www.w3.org/2000/svg" width="72" height="72" viewBox="0 0 72 72" version="1.1"><path d="M 51.384 12.442 C 50.446 14.885, 51.428 17.459, 53.445 17.847 C 56.088 18.356, 58.227 15.293, 56.926 12.862 C 55.746 10.658, 52.173 10.387, 51.384 12.442 M 29.481 21.394 C 25.246 23.239, 20.222 29.298, 19.431 33.514 C 17.431 44.175, 25.382 54, 36.010 54 C 43.400 54, 49.934 48.673, 52.012 40.955 C 55.445 28.205, 41.545 16.137, 29.481 21.394 M 31.500 25.954 C 22.682 29.601, 21.713 43.215, 29.967 47.483 C 36.981 51.110, 46.162 46.986, 47.550 39.585 C 49.226 30.652, 39.701 22.562, 31.500 25.954" stroke="none" fill="#f5f3f1" fill-rule="evenodd"/><path d="M 46 6.041 C 42.162 7.323, 37.393 7.896, 30.218 7.939 C 18.556 8.008, 14.704 9.186, 10.742 13.895 C 6.788 18.594, 6.012 22.887, 6.006 40.093 C 6 54.447, 6.183 56.031, 8.303 60.040 C 9.877 63.016, 11.984 65.123, 14.960 66.697 C 18.977 68.821, 20.546 69, 35.189 69 C 52.575 69, 55.620 68.312, 60.114 63.373 C 64.421 58.639, 65 55.136, 65 33.819 C 65 11.648, 64.291 8.236, 59.128 5.566 C 55.370 3.623, 52.986 3.709, 46 6.041 M 51.384 12.442 C 50.446 14.885, 51.428 17.459, 53.445 17.847 C 56.088 18.356, 58.227 15.293, 56.926 12.862 C 55.746 10.658, 52.173 10.387, 51.384 12.442 M 29.481 21.394 C 25.246 23.239, 20.222 29.298, 19.431 33.514 C 17.431 44.175, 25.382 54, 36.010 54 C 43.400 54, 49.934 48.673, 52.012 40.955 C 55.445 28.205, 41.545 16.137, 29.481 21.394 M 31.500 25.954 C 22.682 29.601, 21.713 43.215, 29.967 47.483 C 36.981 51.110, 46.162 46.986, 47.550 39.585 C 49.226 30.652, 39.701 22.562, 31.500 25.954" stroke="none" fill="#fa7506" fill-rule="evenodd"/></svg>