<svg xmlns:xlink="http://www.w3.org/1999/xlink" width="223.95833333333334" height="250" viewBox="0 0 43 48" fill="none" xmlns="http://www.w3.org/2000/svg"><path fill-rule="evenodd" clip-rule="evenodd" d="M21.0098 0L21.0236 11.5696L31.5337 5.51802L22.5682 0.342321C22.1233 0.117803 21.5676 0.00415774 21.0098 0Z" fill="#3787F2"></path><path fill-rule="evenodd" clip-rule="evenodd" d="M31.5117 5.49969L21.0266 11.57L31.5214 17.6459V5.50524L31.5117 5.49969Z" fill="#0F6EED"></path><path fill-rule="evenodd" clip-rule="evenodd" d="M38.568 9.57999L40.3953 10.6381C40.8284 10.916 41.2214 11.3588 41.511 11.8612L31.5144 17.6481V5.50818L38.568 9.57999Z" fill="#0E65DA"></path><path fill-rule="evenodd" clip-rule="evenodd" d="M31.4973 17.6239L41.5057 11.8605C41.8141 12.3962 42.0067 12.9984 42.0067 13.5396V23.6914L31.4973 17.6239Z" fill="#0D5DC9"></path><path fill-rule="evenodd" clip-rule="evenodd" d="M31.4973 29.7768L31.5105 17.6501L42.0067 23.6934V23.7093L31.4973 29.7768Z" fill="#0E65DA"></path><path fill-rule="evenodd" clip-rule="evenodd" d="M21.0266 35.8508L31.5374 41.9017L31.5519 29.775L21.0266 35.8508Z" fill="#0E65DA"></path><path fill-rule="evenodd" clip-rule="evenodd" d="M21.0266 35.8471L31.5221 29.7713L21.0266 23.6954V35.8471Z" fill="#3787F2"></path><path fill-rule="evenodd" clip-rule="evenodd" d="M21.0266 35.8544L21.0412 47.424C21.5775 47.4219 22.1125 47.3186 22.549 47.1135L29.3823 43.1796L31.5492 41.9288L21.0266 35.8544Z" fill="#0D5DC9"></path><path fill-rule="evenodd" clip-rule="evenodd" d="M21.0422 35.8544L21.029 47.424C20.4948 47.4226 19.9626 47.32 19.526 47.1163L12.3657 42.9939L10.5217 41.9288L21.0422 35.8544Z" fill="#0E65DA"></path><path fill-rule="evenodd" clip-rule="evenodd" d="M21.0274 35.8508L10.5194 41.9017L10.5049 29.775L21.0274 35.8508Z" fill="#0F6EED"></path><path fill-rule="evenodd" clip-rule="evenodd" d="M1.66548 36.8182L10.4945 41.9017L10.509 29.775L0.494385 35.557C0.795821 36.0809 1.20952 36.5417 1.66548 36.8182Z" fill="#0F6EED"></path><path fill-rule="evenodd" clip-rule="evenodd" d="M0.495464 35.5528L10.481 29.7715L0 23.704V33.8814C0 34.4199 0.18987 35.0193 0.495464 35.5528Z" fill="#217AF1"></path><path fill-rule="evenodd" clip-rule="evenodd" d="M10.5101 29.7775L10.4948 17.6501L0 23.6941V23.7093L10.5101 29.7775Z" fill="#0F6EED"></path><path fill-rule="evenodd" clip-rule="evenodd" d="M10.5101 17.6246L0.500315 11.8605C0.191256 12.3962 0 12.9991 0 13.5403V23.6928L10.5101 17.6246Z" fill="#0C56B9"></path><path fill-rule="evenodd" clip-rule="evenodd" d="M3.64526 9.46011L1.6045 10.6416C1.17279 10.9195 0.782655 11.3609 0.494385 11.8612L10.491 17.6488V5.50818L3.64526 9.46011Z" fill="#0E65DA"></path><path fill-rule="evenodd" clip-rule="evenodd" d="M10.5146 5.49969L20.9997 11.5707L10.5049 17.6458V5.50524L10.5146 5.49969Z" fill="#217AF1"></path><path fill-rule="evenodd" clip-rule="evenodd" d="M21.0103 0L20.9972 11.5696L10.4878 5.51802L19.4637 0.336777C19.9065 0.115724 20.4574 0.00415774 21.0103 0Z" fill="#4D94F3"></path><path fill-rule="evenodd" clip-rule="evenodd" d="M38.619 33.8638L40.4457 34.922C40.8795 35.1991 41.2724 35.6426 41.562 36.145L31.5654 41.9319V29.792L38.619 33.8638Z" fill="#0F6EED"></path><path fill-rule="evenodd" clip-rule="evenodd" d="M31.5483 41.9325L41.5574 36.1699C41.8658 36.7048 42.0577 37.3077 42.0577 37.8489V48L31.5483 41.9325Z" fill="#0C56B9"></path><path d="M21.0356 41.166L21.0411 35.8469L21.0321 35.8413L21.0411 35.8358V35.8469L25.9057 38.6471L25.8988 38.6513L21.0411 35.8469L21.0481 41.166H21.0356ZM16.1551 38.6679L16.1489 38.6645L21.0411 35.8469L16.1551 38.6679ZM21.0411 35.8469L28.1952 31.7058L31.5304 29.7801L31.5401 29.7856L21.0411 35.8469ZM10.5255 35.4173L10.5116 35.4096L10.5186 29.7932V29.7939L10.5255 35.4173ZM31.5595 35.3833L31.5665 29.8008L31.5796 29.8085V35.3715L31.5595 35.3833ZM5.89517 32.4403C5.89378 32.4382 5.89309 32.4355 5.89171 32.4334L10.4895 29.771L5.62769 26.9563V26.9479L10.495 29.7579V29.7801L10.4992 29.7821L5.89517 32.4403ZM31.5304 29.7801V29.7752L31.5367 29.771L31.5304 29.7669V29.7579L36.3978 26.9479V26.9486L31.5304 29.7801ZM36.3978 20.4522L31.5304 17.6498V17.6394L31.536 17.636L36.3978 20.4431V20.4522ZM5.62769 20.4522V20.4438L10.4895 17.6367L10.495 17.6401V17.6491L5.62769 20.4522ZM10.504 17.6304V17.6284L10.5047 17.6277V17.6304H10.504ZM10.5047 17.6117H10.504V12.0106H10.5047V17.6117ZM22.7472 12.5649L21.0127 11.5636L19.7086 12.3161L20.9996 11.5691L21.0058 6.25H21.0203L21.0266 11.5691L22.7472 12.5649Z" fill="#FFFFFF"></path><path d="M21.016 11.5691L21.0098 6.25C21.3348 6.25069 21.6591 6.32276 21.9058 6.46551L25.8743 8.75643L21.016 11.5691Z" fill="#65A2F5"></path><path d="M31.5214 17.6308L22.7472 12.5653L21.0266 11.5695L25.8849 8.75684L31.5214 12.011V17.6128L31.5083 17.6204L31.5214 17.6281V17.6308Z" fill="#217AF1"></path><path d="M31.5234 17.6429V17.6394L31.5144 17.6339V17.6311L31.529 17.6394L31.5234 17.6429ZM31.5144 17.6158V12.014L35.4864 14.307C35.7304 14.4483 35.9521 14.6895 36.1156 14.966L31.5144 17.6158Z" fill="#3787F2"></path><path d="M36.3868 20.4448L31.525 17.6376L31.5105 17.6293L31.4973 17.6217L31.5105 17.614L36.1117 14.9642C36.2808 15.2524 36.3868 15.5788 36.3868 15.8713V20.4448Z" fill="#217AF1"></path><path d="M31.5315 29.7581V17.6501L36.3988 20.4524V26.9482L31.5315 29.7581Z" fill="#3787F2"></path><path d="M25.8912 38.6535L21.0266 35.8532L31.5256 29.7919L31.5519 29.8072L31.545 35.3896L25.8912 38.6535Z" fill="#4D94F3"></path><path d="M21.0266 35.8464V35.8353L28.1807 31.7053L21.0266 35.8464ZM31.5159 29.7747V29.7664L31.5221 29.7706L31.5159 29.7747Z" fill="#D22229"></path><path d="M21.0335 41.1735L21.0266 35.8544L25.8842 38.6588L21.9018 40.958C21.6621 41.0966 21.3495 41.168 21.0335 41.1735Z" fill="#0C56B9"></path><path d="M21.007 41.1735C20.6793 41.1735 20.3515 41.1014 20.1034 40.958L16.1494 38.6754L21.0355 35.8544L21.0299 41.1735H21.007Z" fill="#217AF1"></path><path d="M16.1352 38.6711L10.5118 35.4239L10.5049 29.8005L20.999 35.8591L21.0184 35.848L21.0274 35.8535L16.1352 38.6711Z" fill="#3787F2"></path><path d="M10.4998 35.411L6.52013 33.1131C6.27274 32.9704 6.04753 32.7237 5.8833 32.4416L10.4873 29.7834L10.5067 29.7945L10.4998 35.411Z" fill="#4D94F3"></path><path d="M5.89171 32.4383C5.72886 32.1556 5.62769 31.8375 5.62769 31.552V26.9612L10.4895 29.776L5.89171 32.4383Z" fill="#65A2F5"></path><path d="M10.495 29.7588L5.62769 26.9489V20.4531L10.495 17.6501V29.7588Z" fill="#4D94F3"></path><path d="M5.62769 20.4487V15.8745C5.62769 15.5862 5.73024 15.2661 5.89517 14.9813L10.4895 17.6415L5.62769 20.4487ZM10.504 17.6332V17.6166H10.5047V17.6325L10.504 17.6332Z" fill="#0F6EED"></path><path d="M10.4831 17.6436L10.4776 17.6401L5.8833 14.9798C6.04684 14.6971 6.27205 14.4504 6.52013 14.307L10.4922 12.014V17.6339L10.4831 17.6394V17.6436Z" fill="#3787F2"></path><path d="M10.5049 17.6318V12.0119L16.1275 8.76538L20.9997 11.5705L19.7087 12.3175L10.5049 17.6318Z" fill="#0F6EED"></path><path d="M20.9874 11.5691L16.1152 8.76405L20.097 6.46551C20.3437 6.32276 20.668 6.25069 20.9936 6.25L20.9874 11.5691Z" fill="#7FB2F7"></path><path d="M31.5654 35.3721V29.809L36.1237 32.4235C35.9595 32.7132 35.7315 32.9668 35.4793 33.1123L31.5654 35.3721Z" fill="#65A2F5"></path></svg>